<svg t="1744104341810" class="icon" viewBox="0 0 1024 1024" version="1.1" xmlns="http://www.w3.org/2000/svg" p-id="4967" width="200" height="200"><path d="M726.016 122.88c1.024 0 1.536 0 2.56 1.536L898.56 294.4l1.536 1.536v1.024l-0.512 0.512-0.512 0.512-0.512 0.512-170.496 170.496c-1.024 1.024-1.536 1.536-2.048 1.536h-1.024c-0.512 0-1.024-0.512-2.048-1.536L552.448 298.496l-0.512-0.512v-1.024c0-1.536 0-2.048 1.536-3.072l168.96-168.96c2.048-2.048 2.56-2.048 3.584-2.048z m-373.248 87.552h0.512v228.864H124.416V209.92h228.352v0.512z m458.752 458.24v229.376H582.144V668.672H811.52z m-458.752 0h0.512v229.376H123.904V668.672h228.864zM726.016 66.048c-15.872 0-30.208 5.632-42.496 17.92L513.024 254.464c-11.264 12.288-17.92 26.624-17.92 43.008 0 16.896 5.632 30.72 17.92 41.984L683.52 509.952c12.288 12.288 26.624 18.432 42.496 18.432 15.872 0 30.208-6.144 42.496-18.432l170.496-170.496c12.288-11.264 18.432-25.6 18.432-41.984 0-16.896-6.144-30.72-18.432-43.008L768.512 83.968c-11.776-11.776-26.624-17.92-42.496-17.92m-373.248 87.04H123.392c-15.872 0-29.184 5.632-40.448 16.896-10.752 10.752-16.896 24.576-16.896 40.448v229.376c0 15.872 5.632 29.696 16.896 40.448 10.752 11.264 24.576 17.408 40.448 17.408h229.376c15.872 0 29.696-5.632 40.448-17.408 11.264-11.264 17.408-25.088 17.408-40.448V209.92c0-15.872-5.632-29.184-17.408-40.448-11.776-10.24-25.088-16.384-40.448-16.384m459.264 458.24H582.656c-15.872 0-29.696 5.632-40.448 16.896-11.264 10.752-17.408 24.576-17.408 40.448v230.4c0 15.872 5.632 29.184 17.408 40.448 11.264 10.752 25.088 16.896 40.448 16.896h229.376c15.872 0 29.184-5.632 40.448-16.896 10.752-10.752 16.896-24.576 16.896-40.448v-230.4c0-15.872-5.632-29.184-16.896-40.448-11.776-10.752-24.576-16.896-40.448-16.896m-459.264 0H123.392c-15.872 0-29.184 5.632-40.448 16.896-10.752 10.752-16.896 24.576-16.896 40.448v230.4c0 15.872 5.632 29.184 16.896 40.448 10.752 10.752 24.576 16.896 40.448 16.896h229.376c15.872 0 29.696-5.632 40.448-16.896 11.264-10.752 17.408-24.576 17.408-40.448v-230.4c0-15.872-5.632-29.184-17.408-40.448-11.776-10.752-25.088-16.896-40.448-16.896" fill="#228B22" p-id="4968"></path></svg>