<svg t="1744103497656" class="icon" viewBox="0 0 1024 1024" version="1.1" xmlns="http://www.w3.org/2000/svg" p-id="2655" width="200" height="200"><path d="M329.6 278.4h537.6c19.2 0 35.2-16 35.2-35.2 0-19.2-16-35.2-35.2-35.2H329.6c-19.2 0-35.2 16-35.2 35.2 0 19.2 16 35.2 35.2 35.2z" p-id="2656" fill="#228B22"></path><path d="M150.4 243.2m-35.2 0a35.2 35.2 0 1 0 70.4 0 35.2 35.2 0 1 0-70.4 0Z" p-id="2657" fill="#228B22"></path><path d="M867.2 492.8H329.6c-19.2 0-35.2 16-35.2 35.2s16 35.2 35.2 35.2h537.6c19.2 0 35.2-16 35.2-35.2s-16-35.2-35.2-35.2z" p-id="2658" fill="#228B22"></path><path d="M150.4 528m-35.2 0a35.2 35.2 0 1 0 70.4 0 35.2 35.2 0 1 0-70.4 0Z" p-id="2659" fill="#228B22"></path><path d="M867.2 777.6H329.6c-19.2 0-35.2 16-35.2 35.2 0 19.2 16 35.2 35.2 35.2h537.6c19.2 0 35.2-16 35.2-35.2 0-19.2-16-35.2-35.2-35.2z" p-id="2660" fill="#228B22"></path><path d="M150.4 812.8m-35.2 0a35.2 35.2 0 1 0 70.4 0 35.2 35.2 0 1 0-70.4 0Z" p-id="2661" fill="#228B22"></path></svg>