<svg t="1744104200458" class="icon" viewBox="0 0 1024 1024" version="1.1" xmlns="http://www.w3.org/2000/svg" p-id="3919" width="200" height="200"><path d="M433.230769 459.460923h-236.307692c-21.819077 0-39.384615-14.651077-39.384615-32.768 0-18.116923 17.565538-32.846769 39.384615-32.846769h236.307692c21.819077 0 39.384615 14.651077 39.384616 32.846769 0 18.116923-17.565538 32.768-39.384616 32.768z m236.307693 164.155077h-472.615385c-21.819077 0-39.384615-14.729846-39.384615-32.846769 0-18.116923 17.565538-32.846769 39.384615-32.846769h472.615385c21.819077 0 39.384615 14.729846 39.384615 32.846769 0 18.116923-17.565538 32.846769-39.384615 32.846769zM669.538462 787.692308h-472.615385c-21.819077 0-39.384615-14.651077-39.384615-32.84677 0-18.116923 17.565538-32.768 39.384615-32.768h472.615385c21.819077 0 39.384615 14.651077 39.384615 32.768 0 18.116923-17.565538 32.846769-39.384615 32.84677z" fill="#228B22" p-id="3920"></path><path d="M814.473846 1024H209.526154A209.683692 209.683692 0 0 1 0 814.473846V209.526154A209.683692 209.683692 0 0 1 209.526154 0h604.947692A209.762462 209.762462 0 0 1 1024 209.526154v604.947692A209.841231 209.841231 0 0 1 814.473846 1024zM209.526154 73.176615c-75.224615 0-136.428308 61.124923-136.428308 136.27077v605.10523c0 75.145846 61.203692 136.270769 136.349539 136.27077h605.10523c75.145846 0 136.270769-61.124923 136.27077-136.27077V209.447385c0-75.145846-61.124923-136.270769-136.27077-136.27077H209.447385z" fill="#228B22" p-id="3921"></path></svg>