<svg t="1744160755120" class="icon" viewBox="0 0 1024 1024" version="1.1" xmlns="http://www.w3.org/2000/svg" p-id="14840" width="200" height="200"><path d="M232.96 295.0144c-16.6912 0-30.208 14.3872-30.208 32.1024s13.5168 32.1024 30.208 32.1024h361.984c16.64 0 30.1568-14.336 30.1568-32.1024 0-17.7152-13.5168-32.1024-30.208-32.1024H232.96z m180.992 192.6144H232.96c-16.6912 0-30.208 14.3872-30.208 32.1024s13.5168 32.1024 30.208 32.1024h180.992c16.64 0 30.1568-14.336 30.1568-32.1024 0-17.7152-13.4656-32.1024-30.208-32.1024z m-2.4064 385.28c17.3568 0 31.2832 14.336 31.2832 32.1024a31.744 31.744 0 0 1-31.2832 32.1024h-235.008C107.3664 937.1136 51.2 879.5648 51.2 808.704V230.8096C51.2 159.9488 107.3664 102.4 176.5376 102.4h627.2c69.1712 0 119.7056 42.6496 119.7056 113.5104V409.088a31.744 31.744 0 0 1-31.3344 32.1024 31.744 31.744 0 0 1-31.3344-32.1024V215.9104c0-35.4816-22.3744-49.3056-57.0368-49.3056H176.5376c-34.6624 0-62.6688 28.672-62.6688 64.2048v577.8944c0 35.4816 28.0064 64.2048 62.6688 64.2048h235.008zM709.7856 972.8a263.168 263.168 0 0 1-263.0144-263.3728 263.168 263.168 0 0 1 263.0144-263.3216A263.168 263.168 0 0 1 972.8 709.4272 263.168 263.168 0 0 1 709.7856 972.8z m0-51.6096a211.456 211.456 0 0 0 211.1488-211.7632 211.456 211.456 0 0 0-211.1488-211.712 211.456 211.456 0 0 0-211.1488 211.712 211.456 211.456 0 0 0 211.1488 211.7632z m98.1504-232.2432a23.552 23.552 0 1 1 0 46.8992h-120.32v-164.2496a23.552 23.552 0 0 1 47.104 0v117.3504h73.216z" fill="#228B22" p-id="14841"></path></svg>