<svg height="593" node-id="1" sillyvg="true" template-height="593" template-width="1240" version="1.1" viewBox="0 0 1240 593" width="1240" xmlns="http://www.w3.org/2000/svg" xmlns:xlink="http://www.w3.org/1999/xlink"><defs node-id="131"></defs><g node-id="133"><g node-id="134"><path d="M 884.20 291.00 L 882.20 287.70 L 880.80 286.40 L 869.70 278.50 L 866.80 276.00 L 864.00 272.80 L 862.50 270.40 L 859.80 264.10 L 859.00 260.60 L 858.40 256.40 L 858.20 251.30 L 858.40 247.00 L 859.00 243.10 L 859.90 239.60 L 861.20 236.30 L 863.40 232.20 L 866.00 228.40 L 869.10 225.00 L 872.50 221.90 L 880.30 216.40 L 886.70 212.80 L 906.60 202.90 L 912.90 199.50 L 918.40 195.90 L 921.90 193.20 L 924.80 190.30 L 927.30 187.30 L 930.10 182.10 L 931.60 176.00 L 931.90 171.00 L 931.50 166.80 L 930.70 163.10 L 929.30 159.50 L 927.50 156.30 L 925.40 153.40 L 921.60 149.40 L 917.30 145.80 L 903.60 135.70 L 896.80 129.60 L 892.70 123.80 L 891.30 120.60 L 890.30 117.00 L 889.80 112.90 L 889.80 108.70 L 890.30 104.00 L 892.70 93.60 L 896.80 82.40 L 899.50 76.80 L 906.00 65.40 L 909.90 59.90 L 914.10 54.60 L 918.60 49.40 L 923.50 44.60 L 928.80 40.10 L 934.30 36.00 L 940.20 32.40 L 946.30 29.30 L 952.80 26.80 L 957.70 25.30 L 962.90 24.30 L 968.20 23.60 L 973.70 23.40 L 978.70 23.70 L 982.60 24.40 L 985.70 25.40 L 988.50 27.00 L 990.70 28.80 L 992.40 31.00 L 993.70 33.40 L 995.40 39.20 L 996.10 44.00 L 997.10 60.30 L 997.80 65.90 L 999.10 71.40 L 1000.30 75.00 L 1001.90 78.50 L 1003.90 81.90 L 1006.40 84.90 L 1009.50 87.90 L 1013.40 90.70 L 1018.20 93.40 L 1022.90 95.50 L 1027.60 97.00 L 1032.40 98.20 L 1042.00 99.40 L 1069.60 99.80 L 1074.00 100.10 L 1082.00 101.60 L 1085.80 102.90 L 1089.50 104.60 L 1092.90 106.90 L 1097.60 111.30 L 1102.00 117.60 L 1104.10 121.90 L 1105.70 126.20 L 1106.90 130.50 L 1107.60 134.90 L 1107.90 140.70 L 1107.60 146.60 L 1106.60 152.60 L 1103.30 164.60 L 1100.90 170.60 L 1097.00 179.50 L 1078.70 214.20 L 1074.80 222.20 L 1070.70 232.70 L 1069.30 237.50 L 1068.30 244.80 L 1068.70 251.30 L 1069.90 256.20 L 1071.40 260.30 L 1073.20 263.80 L 1075.40 267.10 L 1080.40 272.60 L 1084.60 276.10 L 1098.00 285.30 L 1102.20 288.60 L 1106.00 292.40 L 1108.30 295.10 L 1110.20 298.30 L 1111.90 302.00 L 1113.20 305.80 L 1114.00 310.30 L 1114.50 315.70 L 1113.90 323.50 L 1113.10 327.00 L 1111.90 330.20 L 1109.80 334.40 L 1107.30 338.20 L 1104.40 341.90 L 1099.40 347.00 L 1077.60 365.40 L 1073.10 370.00 L 1070.40 373.30 L 1068.20 376.70 L 1066.60 380.30 L 1065.70 383.20 L 1065.20 386.20 L 1065.10 389.40 L 1065.40 392.90 L 1066.10 395.70 L 1067.20 398.10 L 1068.60 400.20 L 1071.20 403.00 L 1074.50 405.50 L 1086.10 412.40 L 1092.60 417.20 L 1097.50 422.20 L 1099.50 425.00 L 1101.40 428.40 L 1103.00 432.40 L 1104.20 436.40 L 1105.10 441.30 L 1105.70 447.00 L 1105.50 450.10 L 1104.60 453.30 L 1103.10 456.60 L 1100.80 460.00 L 1098.20 463.00 L 1094.90 466.10 L 1091.00 469.20 L 1081.60 475.10 L 1070.40 480.20 L 1063.90 482.60 L 1055.20 485.30 L 1045.70 487.60 L 1035.40 489.50 L 1019.60 491.10 L 1002.60 491.40 L 994.00 491.00 L 985.20 490.20 L 976.30 488.90 L 967.20 487.10 L 958.30 484.90 L 949.30 482.20 L 940.20 478.90 L 931.10 475.10 L 922.30 470.80 L 913.50 465.80 L 904.70 460.20 L 896.00 453.90 L 888.50 447.80 L 882.10 442.00 L 876.70 436.60 L 872.20 431.40 L 868.00 425.70 L 864.50 420.20 L 861.80 415.00 L 859.70 410.10 L 858.10 404.80 L 856.90 399.70 L 856.20 394.80 L 856.10 390.00 L 856.40 383.50 L 857.30 377.20 L 858.80 371.10 L 860.70 365.00 L 865.60 353.20 L 877.90 328.10 L 881.40 320.40 L 883.30 315.10 L 884.70 310.10 L 885.60 305.30 L 885.90 301.60 L 885.70 298.00 L 885.20 294.50 L 884.20 291.00" fill="#d6eeff" fill-rule="evenodd" group-id="1,2" id="Fill-1" node-id="7" stroke="none" target-height="468" target-width="258.40002" target-x="856.1" target-y="23.4"/><path d="M 983.40 206.00 L 983.40 574.80" fill="none" group-id="1,2" id="Stroke-3" node-id="8" stroke="#e8f6ff" stroke-linecap="square" stroke-width="10.5" target-height="368.8" target-width="0" target-x="983.4" target-y="206"/><path d="M 1019.20 420.40 L 1043.30 397.50" fill="none" group-id="1,2" id="Stroke-5" node-id="9" stroke="#e8f6ff" stroke-linecap="square" stroke-width="8.4" target-height="22.899994" target-width="24.100037" target-x="1019.2" target-y="397.5"/><path d="M 1011.80 297.20 L 1035.90 274.30" fill="none" group-id="1,2" id="Stroke-7" node-id="10" stroke="#e8f6ff" stroke-linecap="square" stroke-width="8.4" target-height="22.900024" target-width="24.100037" target-x="1011.8" target-y="274.3"/><path d="M 1215.30 457.00 L 1215.00 463.80 L 1214.20 470.40 L 1212.90 476.80 L 1211.00 483.00 L 1208.70 489.10 L 1206.00 494.90 L 1202.90 500.40 L 1199.30 505.70 L 1195.40 510.60 L 1191.10 515.30 L 1186.50 519.60 L 1181.50 523.50 L 1176.20 527.10 L 1170.70 530.20 L 1164.90 532.90 L 1158.90 535.20 L 1152.60 537.00 L 1146.20 538.30 L 1139.60 539.10 L 1132.80 539.40 L 1125.90 539.10 L 1119.30 538.30 L 1112.90 537.00 L 1106.70 535.20 L 1100.60 532.90 L 1094.90 530.20 L 1089.30 527.10 L 1084.10 523.50 L 1079.10 519.60 L 1074.50 515.30 L 1070.20 510.60 L 1066.20 505.70 L 1062.70 500.40 L 1059.50 494.90 L 1056.80 489.10 L 1054.50 483.00 L 1052.70 476.80 L 1051.40 470.40 L 1050.60 463.80 L 1050.30 457.00 L 1050.60 450.10 L 1051.40 443.50 L 1052.70 437.10 L 1054.50 430.90 L 1056.80 424.80 L 1059.50 419.00 L 1062.70 413.50 L 1066.20 408.20 L 1070.20 403.30 L 1074.50 398.60 L 1079.10 394.30 L 1084.10 390.40 L 1089.30 386.80 L 1094.90 383.70 L 1100.60 381.00 L 1106.70 378.70 L 1112.90 376.90 L 1119.30 375.60 L 1125.90 374.80 L 1132.80 374.50 L 1139.60 374.80 L 1146.20 375.60 L 1152.60 376.90 L 1158.90 378.70 L 1164.90 381.00 L 1170.70 383.70 L 1176.20 386.80 L 1181.50 390.40 L 1186.50 394.30 L 1191.10 398.60 L 1195.40 403.30 L 1199.30 408.20 L 1202.90 413.50 L 1206.00 419.00 L 1208.70 424.80 L 1211.00 430.90 L 1212.90 437.10 L 1214.20 443.50 L 1215.00 450.10 L 1215.30 457.00" fill="#e8f6ff" fill-rule="evenodd" group-id="1,2" id="Fill-9" node-id="11" stroke="none" target-height="164.90002" target-width="165" target-x="1050.3" target-y="374.5"/><path d="M 1011.80 235.60 L 1035.90 212.70" fill="none" group-id="1,2" id="Stroke-11" node-id="12" stroke="#e8f6ff" stroke-linecap="square" stroke-width="8.4" target-height="22.90001" target-width="24.100037" target-x="1011.8" target-y="212.7"/><path d="M 948.60 247.50 L 924.50 223.40" fill="none" group-id="1,2" id="Stroke-13" node-id="13" stroke="#e8f6ff" stroke-linecap="square" stroke-width="8.4" target-height="24.100006" target-width="24.099976" target-x="924.5" target-y="223.4"/><path d="M 134.20 367.30 L 134.50 375.70 L 135.20 383.70 L 136.40 391.20 L 138.00 398.30 L 140.10 405.10 L 142.60 411.90 L 145.60 418.20 L 148.90 424.20 L 152.50 429.90 L 156.60 435.20 L 161.00 440.20 L 165.70 445.00 L 170.80 449.30 L 176.20 453.40 L 182.00 457.20 L 187.90 460.50 L 194.10 463.50 L 200.60 466.20 L 207.40 468.60 L 214.50 470.60 L 223.40 472.60 L 232.70 474.00 L 242.40 474.90 L 252.50 475.20 L 262.60 474.90 L 272.30 474.00 L 281.60 472.60 L 290.50 470.60 L 297.60 468.60 L 304.40 466.20 L 310.90 463.50 L 317.10 460.50 L 323.00 457.20 L 328.80 453.40 L 334.20 449.30 L 339.30 445.00 L 344.00 440.20 L 348.40 435.20 L 352.50 429.90 L 356.10 424.20 L 359.40 418.20 L 362.40 411.90 L 364.90 405.10 L 367.00 398.30 L 368.60 391.20 L 369.80 383.70 L 370.50 375.70 L 370.80 367.30 L 370.50 351.10 L 369.60 334.70 L 368.10 318.10 L 366.20 301.60 L 363.70 285.20 L 360.80 268.90 L 357.40 252.60 L 353.70 236.70 L 349.60 221.10 L 340.50 190.70 L 330.30 162.20 L 319.40 136.30 L 313.60 123.90 L 307.90 112.60 L 302.20 102.40 L 296.10 92.30 L 290.30 83.60 L 284.70 76.20 L 280.10 70.70 L 271.70 62.40 L 267.80 59.40 L 264.40 57.10 L 261.10 55.40 L 258.10 54.30 L 255.20 53.60 L 252.50 53.40 L 249.80 53.60 L 246.90 54.30 L 243.90 55.40 L 240.60 57.10 L 237.20 59.40 L 233.30 62.40 L 224.90 70.70 L 220.30 76.20 L 214.70 83.60 L 208.90 92.30 L 202.80 102.40 L 197.10 112.60 L 191.40 123.90 L 185.60 136.30 L 174.70 162.20 L 164.50 190.70 L 155.40 221.10 L 151.30 236.70 L 147.60 252.60 L 144.20 268.90 L 141.30 285.20 L 138.80 301.60 L 136.90 318.10 L 135.40 334.70 L 134.50 351.10 L 134.20 367.30" fill="#d6eeff" fill-rule="evenodd" group-id="1,2" id="Fill-15" node-id="14" stroke="none" target-height="421.80002" target-width="236.59999" target-x="134.2" target-y="53.4"/><path d="M 252.50 211.40 L 252.50 574.80" fill="none" group-id="1,2" id="Stroke-17" node-id="15" stroke="#e8f6ff" stroke-linecap="square" stroke-width="10.5" target-height="363.4" target-width="0" target-x="252.5" target-y="211.4"/><path d="M 220.10 309.20 L 193.90 281.70" fill="none" group-id="1,2" id="Stroke-19" node-id="16" stroke="#e8f6ff" stroke-linecap="square" stroke-width="7" target-height="27.5" target-width="26.200012" target-x="193.9" target-y="281.7"/><path d="M 220.10 264.80 L 193.90 237.30" fill="none" group-id="1,2" id="Stroke-21" node-id="17" stroke="#e8f6ff" stroke-linecap="square" stroke-width="7" target-height="27.499985" target-width="26.200012" target-x="193.9" target-y="237.3"/><path d="M 528.30 371.70 L 528.00 380.30 L 527.20 388.80 L 525.80 397.00 L 523.90 405.00 L 521.40 412.90 L 518.50 420.60 L 515.10 427.90 L 511.20 435.00 L 506.90 441.90 L 502.20 448.40 L 497.10 454.60 L 491.60 460.40 L 485.70 466.00 L 479.50 471.10 L 473.00 475.80 L 466.20 480.10 L 459.10 483.90 L 451.70 487.30 L 444.10 490.30 L 436.20 492.70 L 428.10 494.70 L 419.90 496.10 L 411.50 496.90 L 402.80 497.20 L 394.10 496.90 L 385.70 496.10 L 377.40 494.70 L 369.40 492.70 L 361.50 490.30 L 353.90 487.30 L 346.50 483.90 L 339.40 480.10 L 332.60 475.80 L 326.10 471.10 L 319.90 466.00 L 314.00 460.40 L 308.50 454.60 L 303.40 448.40 L 298.70 441.90 L 294.40 435.00 L 290.50 427.90 L 287.10 420.60 L 284.20 412.90 L 281.70 405.00 L 279.80 397.00 L 278.40 388.80 L 277.50 380.30 L 277.20 371.70 L 277.50 363.00 L 278.40 354.50 L 279.80 346.30 L 281.70 338.30 L 284.20 330.40 L 287.10 322.70 L 290.50 315.40 L 294.40 308.30 L 298.70 301.40 L 303.40 294.90 L 308.50 288.70 L 314.00 282.90 L 319.90 277.40 L 326.10 272.30 L 332.60 267.50 L 339.40 263.20 L 346.50 259.40 L 353.90 256.00 L 361.50 253.00 L 369.40 250.60 L 377.40 248.60 L 385.70 247.20 L 394.10 246.40 L 402.80 246.10 L 411.50 246.40 L 419.90 247.20 L 428.10 248.60 L 436.20 250.60 L 444.10 253.00 L 451.70 256.00 L 459.10 259.40 L 466.20 263.20 L 473.00 267.50 L 479.50 272.30 L 485.70 277.40 L 491.60 282.90 L 497.10 288.70 L 502.20 294.90 L 506.90 301.40 L 511.20 308.30 L 515.10 315.40 L 518.50 322.70 L 521.40 330.40 L 523.90 338.30 L 525.80 346.30 L 527.20 354.50 L 528.00 363.00 L 528.30 371.70" fill="#f1faff" fill-rule="evenodd" group-id="1,2" id="Fill-23" node-id="18" stroke="none" target-height="251.1" target-width="251.09998" target-x="277.2" target-y="246.1"/><path d="M 402.80 347.30 L 402.80 578.70" fill="none" group-id="1,2" id="Stroke-25" node-id="19" stroke="#def2ff" stroke-linecap="square" stroke-width="10.5" target-height="231.40002" target-width="0" target-x="402.8" target-y="347.3"/><path d="M 432.60 367.20 L 452.60 347.10" fill="none" group-id="1,2" id="Stroke-27" node-id="20" stroke="#def2ff" stroke-linecap="square" stroke-width="10.5" target-height="20.100006" target-width="20" target-x="432.6" target-y="347.1"/><path d="M 373.00 414.20 L 352.90 394.10" fill="none" group-id="1,2" id="Stroke-29" node-id="21" stroke="#def2ff" stroke-linecap="square" stroke-width="10.5" target-height="20.100006" target-width="20.100006" target-x="352.9" target-y="394.1"/><path d="M 373.00 369.20 L 352.90 349.10" fill="none" group-id="1,2" id="Stroke-31" node-id="22" stroke="#def2ff" stroke-linecap="square" stroke-width="10.5" target-height="20.100006" target-width="20.100006" target-x="352.9" target-y="349.1"/><path d="M 1132.80 461.70 L 1132.80 574.80" fill="none" group-id="1,2" id="Stroke-33" node-id="23" stroke="#d6eeff" stroke-linecap="square" stroke-width="10.5" target-height="113.099976" target-width="0" target-x="1132.8" target-y="461.7"/><path d="M 1153.20 474.30 L 1170.10 457.70" fill="none" group-id="1,2" id="Stroke-35" node-id="24" stroke="#d6eeff" stroke-linecap="square" stroke-width="6.3" target-height="16.599976" target-width="16.900024" target-x="1153.2" target-y="457.7"/><path d="M 1114.40 491.70 L 1093.80 473.10" fill="none" group-id="1,2" id="Stroke-37" node-id="25" stroke="#d6eeff" stroke-linecap="square" stroke-width="6.3" target-height="18.600006" target-width="20.599976" target-x="1093.8" target-y="473.1"/><path d="M 938.00 431.90 L 937.70 440.70 L 937.00 448.90 L 936.00 456.50 L 934.50 463.70 L 932.70 470.30 L 930.30 477.00 L 927.70 483.30 L 924.70 489.10 L 921.40 494.50 L 917.80 499.50 L 913.80 504.30 L 909.60 508.80 L 905.10 512.80 L 900.30 516.60 L 895.20 520.00 L 888.60 523.70 L 881.60 526.90 L 874.30 529.70 L 866.60 532.00 L 858.80 533.70 L 850.70 534.90 L 842.30 535.60 L 833.60 535.90 L 824.90 535.60 L 816.60 534.90 L 808.50 533.70 L 800.70 532.00 L 792.90 529.70 L 785.60 526.90 L 778.60 523.70 L 772.00 520.00 L 767.00 516.60 L 762.20 512.80 L 757.70 508.80 L 753.40 504.30 L 749.40 499.50 L 745.80 494.50 L 742.60 489.10 L 739.60 483.30 L 736.90 477.00 L 734.60 470.30 L 732.70 463.70 L 731.30 456.50 L 730.20 448.90 L 729.50 440.70 L 729.20 431.90 L 729.50 417.60 L 730.10 403.40 L 731.10 389.40 L 734.40 361.70 L 738.90 335.10 L 741.60 322.30 L 748.10 297.10 L 755.40 274.10 L 763.80 252.30 L 772.60 233.20 L 777.60 223.90 L 782.50 215.60 L 787.30 208.10 L 792.20 201.40 L 797.60 194.80 L 802.90 189.20 L 807.90 184.60 L 812.90 180.80 L 817.30 178.10 L 821.60 176.10 L 825.70 174.70 L 829.70 173.80 L 833.60 173.50 L 837.60 173.80 L 841.60 174.70 L 845.70 176.10 L 849.90 178.10 L 854.30 180.80 L 859.30 184.60 L 864.40 189.20 L 869.60 194.80 L 875.00 201.40 L 879.90 208.10 L 884.80 215.60 L 889.70 223.90 L 894.60 233.20 L 903.40 252.30 L 911.80 274.10 L 919.10 297.10 L 925.60 322.30 L 928.30 335.10 L 932.90 361.70 L 936.10 389.40 L 937.10 403.40 L 937.80 417.60 L 938.00 431.90" fill="#f1faff" fill-rule="evenodd" group-id="1,2" id="Fill-39" node-id="26" stroke="none" target-height="362.40002" target-width="208.79999" target-x="729.2" target-y="173.5"/><path d="M 833.60 315.80 L 833.60 574.80" fill="none" group-id="1,2" id="Stroke-41" node-id="27" stroke="#d6eeff" stroke-linecap="square" stroke-width="10.5" target-height="259" target-width="0" target-x="833.6" target-y="315.8"/><path d="M 857.00 460.20 L 881.10 436.10" fill="none" group-id="1,2" id="Stroke-43" node-id="28" stroke="#d6eeff" stroke-linecap="square" stroke-width="10.5" target-height="24.100006" target-width="24.099976" target-x="857" target-y="436.1"/><path d="M 857.00 344.60 L 881.10 320.50" fill="none" group-id="1,2" id="Stroke-45" node-id="29" stroke="#d6eeff" stroke-linecap="square" stroke-width="10.5" target-height="24.100006" target-width="24.099976" target-x="857" target-y="320.5"/><path d="M 805.30 354.20 L 780.90 329.80" fill="none" group-id="1,2" id="Stroke-47" node-id="30" stroke="#d6eeff" stroke-linecap="square" stroke-width="10.5" target-height="24.400024" target-width="24.399963" target-x="780.9" target-y="329.8"/><path d="M 221.30 420.30 L 221.10 428.60 L 220.50 436.80 L 219.50 444.80 L 218.00 452.60 L 216.10 460.40 L 213.80 467.80 L 211.10 474.80 L 208.00 481.60 L 204.30 488.10 L 200.20 494.20 L 195.70 499.80 L 190.80 505.00 L 186.50 508.80 L 181.90 512.20 L 177.00 515.30 L 171.70 518.10 L 166.10 520.60 L 160.50 522.60 L 154.40 524.10 L 148.00 525.30 L 141.10 526.00 L 133.70 526.30 L 126.30 526.00 L 119.40 525.30 L 112.90 524.10 L 106.90 522.60 L 101.20 520.60 L 95.60 518.10 L 90.30 515.30 L 85.40 512.20 L 80.80 508.80 L 76.60 505.00 L 71.60 499.80 L 67.10 494.20 L 63.00 488.10 L 59.40 481.60 L 56.20 474.80 L 53.50 467.80 L 51.20 460.40 L 49.30 452.60 L 47.90 444.80 L 46.90 436.80 L 46.20 428.60 L 46.00 420.30 L 46.30 412.10 L 47.00 404.00 L 48.10 396.00 L 49.60 388.00 L 51.60 380.10 L 53.90 372.40 L 59.50 357.60 L 62.80 350.40 L 70.20 337.00 L 78.60 324.80 L 87.70 314.10 L 92.40 309.50 L 97.50 305.10 L 102.60 301.30 L 107.60 298.10 L 112.70 295.40 L 118.10 293.10 L 123.30 291.50 L 128.50 290.60 L 133.70 290.30 L 138.80 290.60 L 144.00 291.50 L 149.30 293.10 L 154.60 295.40 L 159.70 298.10 L 164.80 301.30 L 169.80 305.10 L 174.90 309.50 L 179.60 314.10 L 188.70 324.80 L 193.10 330.80 L 201.00 343.50 L 204.50 350.40 L 210.80 364.90 L 213.50 372.40 L 217.70 388.00 L 219.30 396.00 L 220.40 404.00 L 221.10 412.10 L 221.30 420.30" fill="#e8f6ff" fill-rule="evenodd" group-id="1,2" id="Fill-49" node-id="31" stroke="none" target-height="236" target-width="175.3" target-x="46" target-y="290.3"/><path d="M 133.70 407.60 L 133.70 574.80" fill="none" group-id="1,2" id="Stroke-51" node-id="32" stroke="#d6eeff" stroke-linecap="square" stroke-width="10.5" target-height="167.19998" target-width="0" target-x="133.7" target-y="407.6"/><path d="M 156.70 428.00 L 178.20 403.90" fill="none" group-id="1,2" id="Stroke-53" node-id="33" stroke="#d6eeff" stroke-linecap="square" stroke-width="7" target-height="24.100006" target-width="21.5" target-x="156.7" target-y="403.9"/><path d="M 110.60 477.50 L 89.20 453.40" fill="none" group-id="1,2" id="Stroke-55" node-id="34" stroke="#d6eeff" stroke-linecap="square" stroke-width="7" target-height="24.100006" target-width="21.400002" target-x="89.2" target-y="453.4"/><path d="M 110.60 429.00 L 89.20 404.90" fill="none" group-id="1,2" id="Stroke-57" node-id="35" stroke="#d6eeff" stroke-linecap="square" stroke-width="7" target-height="24.100006" target-width="21.400002" target-x="89.2" target-y="404.9"/><path d="M 373.10 542.50 L 369.70 551.90 L 368.40 556.20 L 366.10 566.90 L 365.20 572.80 L 364.80 578.90 L 364.80 585.00 L 333.20 585.00 L 332.70 580.90 L 330.50 574.10 L 329.30 571.50 L 325.80 566.30 L 328.90 566.20 L 333.80 567.10 L 336.90 568.30 L 339.80 570.00 L 343.10 572.60 L 345.10 574.70 L 349.10 580.60 L 353.00 568.70 L 356.90 560.20 L 359.40 555.80 L 362.30 551.70 L 365.50 548.00 L 367.90 545.90 L 373.10 542.50" fill="#d6eeff" fill-rule="evenodd" group-id="1,2" id="Fill-59" node-id="36" stroke="none" target-height="42.5" target-width="47.30002" target-x="325.8" target-y="542.5"/><path d="M 332.60 541.70 L 336.80 551.00 L 338.40 555.40 L 341.40 566.10 L 342.40 572.00 L 343.00 578.10 L 342.90 584.20 L 382.00 584.20 L 382.60 579.90 L 385.30 570.70 L 391.20 557.10 L 385.30 559.70 L 376.70 565.10 L 371.70 569.10 L 368.60 572.20 L 362.30 579.70 L 359.30 571.60 L 357.50 567.90 L 352.70 559.40 L 349.60 555.00 L 346.10 551.00 L 342.10 547.20 L 336.00 543.20 L 332.60 541.70" fill="#d6eeff" fill-rule="evenodd" group-id="1,2" id="Fill-61" node-id="37" stroke="none" target-height="42.5" target-width="58.600006" target-x="332.6" target-y="541.7"/><path d="M 944.80 546.40 L 952.00 557.70 L 956.20 566.50 L 958.00 571.30 L 959.40 576.20 L 960.20 581.10 L 983.70 581.10 L 981.20 576.80 L 978.50 572.80 L 975.50 569.10 L 970.50 563.90 L 965.40 559.50 L 960.20 555.50 L 951.20 549.70 L 944.80 546.40" fill="#d6eeff" fill-rule="evenodd" group-id="1,2" id="Fill-63" node-id="38" stroke="none" target-height="34.69995" target-width="38.900024" target-x="944.8" target-y="546.4"/><path d="M 1005.50 555.70 L 1000.30 564.10 L 998.50 567.80 L 996.70 572.10 L 995.30 576.60 L 994.50 581.10 L 977.90 581.10 L 981.60 575.10 L 987.30 568.50 L 994.60 562.40 L 997.90 560.10 L 1005.50 555.70" fill="#d6eeff" fill-rule="evenodd" group-id="1,2" id="Fill-65" node-id="39" stroke="none" target-height="25.399963" target-width="27.599976" target-x="977.9" target-y="555.7"/><path d="M 1157.90 556.90 L 1152.80 565.30 L 1150.90 569.10 L 1149.10 573.40 L 1147.80 577.90 L 1147.00 582.40 L 1130.40 582.40 L 1134.10 576.30 L 1139.70 569.80 L 1147.00 563.60 L 1150.30 561.30 L 1157.90 556.90" fill="#d6eeff" fill-rule="evenodd" group-id="1,2" id="Fill-67" node-id="40" stroke="none" target-height="25.5" target-width="27.5" target-x="1130.4" target-y="556.9"/><path d="M 908.80 555.70 L 903.70 564.10 L 901.80 567.80 L 900.00 572.10 L 898.70 576.60 L 897.90 581.10 L 881.30 581.10 L 885.00 575.10 L 890.60 568.50 L 897.90 562.40 L 901.20 560.10 L 908.80 555.70" fill="#d6eeff" fill-rule="evenodd" group-id="1,2" id="Fill-69" node-id="41" stroke="none" target-height="25.399963" target-width="27.5" target-x="881.3" target-y="555.7"/><path d="M 1075.50 581.10 L 1050.60 581.10 L 1050.40 575.70 L 1048.60 564.40 L 1044.60 549.40 L 1041.30 540.10 L 1048.70 546.50 L 1055.80 553.50 L 1063.60 562.10 L 1070.60 571.60 L 1073.40 576.50 L 1075.50 581.10" fill="#d6eeff" fill-rule="evenodd" group-id="1,2" id="Fill-71" node-id="42" stroke="none" target-height="41" target-width="34.19995" target-x="1041.3" target-y="540.1"/><path d="M 1082.90 581.10 L 1085.60 574.80 L 1087.30 569.50 L 1088.40 564.60 L 1089.30 558.20 L 1098.50 569.40 L 1104.00 577.30 L 1106.10 581.10 L 1082.90 581.10 Z" fill="#d6eeff" fill-rule="evenodd" group-id="1,2" id="Fill-73" node-id="43" stroke="none" target-height="22.899963" target-width="23.199951" target-x="1082.9" target-y="558.2"/><path d="M 64.10 581.10 L 66.70 574.80 L 68.40 569.50 L 69.60 564.60 L 70.40 558.20 L 79.70 569.40 L 85.10 577.30 L 87.20 581.10 L 64.10 581.10 Z" fill="#d6eeff" fill-rule="evenodd" group-id="1,2" id="Fill-75" node-id="44" stroke="none" target-height="22.899963" target-width="23.099998" target-x="64.1" target-y="558.2"/><path d="M 223.20 540.20 L 227.40 549.50 L 229.00 553.90 L 232.00 564.60 L 233.00 570.50 L 233.60 576.60 L 233.50 582.70 L 272.60 582.70 L 273.20 578.40 L 275.90 569.20 L 281.80 555.60 L 276.00 558.20 L 267.30 563.60 L 262.30 567.60 L 259.20 570.70 L 252.90 578.20 L 249.90 570.10 L 248.10 566.40 L 243.30 557.90 L 240.20 553.50 L 236.70 549.40 L 232.70 545.70 L 226.60 541.70 L 223.20 540.20" fill="#d6eeff" fill-rule="evenodd" group-id="1,2" id="Fill-77" node-id="45" stroke="none" target-height="42.5" target-width="58.59999" target-x="223.2" target-y="540.2"/><path d="M 169.00 543.70 L 165.70 550.30 L 161.60 560.20 L 159.60 566.40 L 157.90 572.90 L 156.70 580.00 L 119.40 583.80 L 117.80 575.70 L 116.20 569.50 L 114.30 564.00 L 111.30 557.40 L 116.50 559.50 L 124.00 563.70 L 128.10 566.90 L 130.60 569.30 L 135.40 575.30 L 138.00 570.80 L 143.10 563.80 L 146.80 559.60 L 151.10 555.50 L 156.30 551.30 L 160.10 548.60 L 169.00 543.70" fill="#d6eeff" fill-rule="evenodd" group-id="1,2" id="Fill-79" node-id="46" stroke="none" target-height="40.099976" target-width="57.699997" target-x="111.3" target-y="543.7"/><path d="M 535.50 262.10 L 704.10 262.10 L 703.90 266.30 L 703.20 270.30 L 702.30 274.10 L 700.90 277.80 L 697.20 284.70 L 692.20 290.70 L 686.30 295.60 L 679.40 299.40 L 675.70 300.70 L 671.80 301.70 L 663.60 302.50 L 575.90 302.50 L 571.70 302.30 L 567.70 301.70 L 563.90 300.70 L 560.20 299.40 L 553.30 295.60 L 547.30 290.70 L 542.40 284.70 L 538.70 277.80 L 537.30 274.10 L 536.30 270.30 L 535.70 266.30 L 535.50 262.10" fill="#aad5ff" fill-rule="evenodd" group-id="1,2" id="Fill-81" node-id="47" stroke="none" target-height="40.399994" target-width="168.59998" target-x="535.5" target-y="262.1"/><path d="M 535.50 502.70 L 704.10 502.70 L 703.90 506.70 L 703.50 508.20 L 702.80 509.70 L 701.30 511.60 L 699.40 513.10 L 697.90 513.80 L 694.60 514.40 L 544.90 514.40 L 541.60 513.80 L 540.20 513.10 L 538.30 511.60 L 536.80 509.70 L 536.10 508.20 L 535.70 506.70 L 535.50 502.70 Z" fill="#c3e4ff" fill-rule="evenodd" group-id="1,2" id="Fill-83" node-id="48" stroke="none" target-height="11.700012" target-width="168.59998" target-x="535.5" target-y="502.7"/><path d="M 799.60 417.80 L 440.00 417.80 L 440.80 409.70 L 443.10 402.20 L 446.80 395.50 L 451.70 389.60 L 457.60 384.70 L 464.30 381.00 L 471.80 378.70 L 479.80 377.90 L 759.70 377.90 L 763.90 378.10 L 771.60 379.70 L 778.70 382.70 L 785.10 387.00 L 790.50 392.40 L 794.70 398.70 L 797.80 405.90 L 799.30 413.60 L 799.60 417.80" fill="#cfedff" fill-rule="evenodd" group-id="1,2" id="Fill-85" node-id="49" stroke="none" target-height="39.899994" target-width="359.59998" target-x="440" target-y="377.9"/><path d="M 480.90 417.80 L 758.70 417.80 L 758.40 423.20 L 757.60 428.40 L 756.30 433.40 L 754.50 438.20 L 752.30 442.90 L 749.70 447.20 L 746.70 451.20 L 743.30 454.90 L 739.50 458.40 L 735.50 461.40 L 731.20 464.00 L 726.60 466.20 L 721.80 468.00 L 716.80 469.30 L 711.60 470.10 L 706.10 470.40 L 533.50 470.40 L 528.00 470.10 L 522.80 469.30 L 517.80 468.00 L 513.00 466.20 L 508.40 464.00 L 504.10 461.40 L 500.00 458.40 L 496.30 454.90 L 492.90 451.20 L 489.90 447.20 L 487.30 442.90 L 485.00 438.20 L 483.30 433.40 L 482.00 428.40 L 481.20 423.20 L 480.90 417.80" fill="#aad5ff" fill-rule="evenodd" group-id="1,2" id="Fill-87" node-id="50" stroke="none" target-height="52.600006" target-width="277.80002" target-x="480.9" target-y="417.8"/><path d="M 705.70 377.90 L 533.90 377.90 L 538.70 377.60 L 543.30 376.90 L 547.80 375.70 L 552.20 374.00 L 556.40 371.90 L 560.40 369.40 L 564.30 366.60 L 568.10 363.30 L 574.80 355.80 L 577.80 351.60 L 583.10 342.20 L 587.20 331.90 L 590.10 320.70 L 591.00 314.80 L 591.80 302.50 L 647.80 302.50 L 648.60 314.80 L 649.50 320.70 L 652.40 331.90 L 656.50 342.20 L 661.80 351.60 L 664.80 355.80 L 671.50 363.30 L 675.20 366.60 L 679.10 369.40 L 683.20 371.90 L 687.40 374.00 L 691.80 375.70 L 696.30 376.90 L 700.90 377.60 L 705.70 377.90" fill="#c3e4ff" fill-rule="evenodd" group-id="1,2" id="Fill-89" node-id="51" stroke="none" target-height="75.399994" target-width="171.79999" target-x="533.9" target-y="302.5"/><path d="M 676.10 221.60 L 563.50 221.60 L 572.80 220.80 L 580.20 218.70 L 583.30 217.20 L 587.10 214.90 L 590.40 212.10 L 593.30 209.00 L 595.80 205.40 L 597.90 201.50 L 599.60 197.40 L 601.10 192.80 L 602.20 187.80 L 603.30 181.20 L 603.90 174.00 L 604.10 166.40 L 635.50 166.40 L 635.70 174.00 L 636.30 181.20 L 637.30 187.80 L 638.50 192.80 L 639.90 197.40 L 641.70 201.50 L 643.80 205.40 L 646.30 209.00 L 649.20 212.10 L 652.50 214.90 L 656.20 217.20 L 659.40 218.70 L 666.80 220.80 L 676.10 221.60" fill="#c3e4ff" fill-rule="evenodd" group-id="1,2" id="Fill-91" node-id="52" stroke="none" target-height="55.200012" target-width="112.599976" target-x="563.5" target-y="166.4"/><path d="M 729.80 262.10 L 509.70 262.10 L 509.90 257.90 L 510.60 253.90 L 511.50 250.00 L 512.90 246.30 L 516.60 239.50 L 521.60 233.50 L 527.50 228.60 L 534.40 224.80 L 538.10 223.50 L 542.00 222.50 L 546.00 221.90 L 550.20 221.60 L 689.40 221.60 L 697.60 222.50 L 701.40 223.50 L 708.70 226.50 L 715.10 230.90 L 720.60 236.40 L 724.90 242.80 L 728.00 250.00 L 729.00 253.90 L 729.60 257.90 L 729.80 262.10 Z" fill="#cfedff" fill-rule="evenodd" group-id="1,2" id="Fill-93" node-id="53" stroke="none" target-height="40.5" target-width="220.09998" target-x="509.7" target-y="221.6"/><path d="M 884.30 582.10 L 355.30 582.10 L 352.70 529.20 L 886.90 529.20 Z" fill="#c3e4ff" fill-rule="evenodd" group-id="1,2" id="Fill-95" node-id="54" stroke="none" target-height="52.899963" target-width="534.2" target-x="352.7" target-y="529.2"/><path d="M 892.10 529.20 L 347.50 529.20 L 343.30 528.40 L 341.40 527.60 L 338.20 524.90 L 336.10 521.30 L 335.60 519.30 L 335.40 514.20 L 904.20 514.20 L 904.00 519.30 L 903.50 521.30 L 901.30 524.90 L 898.20 527.60 L 896.30 528.40 L 892.10 529.20" fill="#d6eeff" fill-rule="evenodd" group-id="1,2" id="Fill-97" node-id="55" stroke="none" target-height="15" target-width="568.80005" target-x="335.4" target-y="514.2"/><path d="M 356.70 565.00 L 882.90 565.00 L 887.10 565.70 L 889.00 566.60 L 892.20 569.30 L 894.30 572.90 L 894.80 574.90 L 895.10 580.00 L 344.50 580.00 L 344.70 574.90 L 345.30 572.90 L 347.40 569.30 L 350.50 566.60 L 352.40 565.70 L 356.70 565.00" fill="#d6eeff" fill-rule="evenodd" group-id="1,2" id="Fill-99" node-id="56" stroke="none" target-height="15" target-width="550.6" target-x="344.5" target-y="565"/><path d="M 442.50 417.90 L 442.50 485.20" fill="none" group-id="1,2" id="Stroke-101" node-id="57" stroke="#d1efff" stroke-linecap="butt" stroke-width="5.6" target-height="67.30002" target-width="0" target-x="442.5" target-y="417.9"/><path d="M 442.50 495.50 L 442.50 510.60" fill="none" group-id="1,2" id="Stroke-103" node-id="58" stroke="#d1efff" stroke-linecap="butt" stroke-width="5.6" target-height="15.100006" target-width="0" target-x="442.5" target-y="495.5"/><path d="M 471.80 417.90 L 471.80 485.20" fill="none" group-id="1,2" id="Stroke-105" node-id="59" stroke="#d1efff" stroke-linecap="butt" stroke-width="5.6" target-height="67.30002" target-width="0" target-x="471.8" target-y="417.9"/><path d="M 471.80 495.30 L 471.80 510.60" fill="none" group-id="1,2" id="Stroke-107" node-id="60" stroke="#d1efff" stroke-linecap="butt" stroke-width="5.6" target-height="15.300018" target-width="0" target-x="471.8" target-y="495.3"/><path d="M 502.60 471.30 L 502.60 486.60" fill="none" group-id="1,2" id="Stroke-109" node-id="61" stroke="#d1efff" stroke-linecap="butt" stroke-width="5.6" target-height="15.300018" target-width="0" target-x="502.6" target-y="471.3"/><path d="M 560.30 307.30 L 560.30 339.50" fill="none" group-id="1,2" id="Stroke-111" node-id="62" stroke="#d1efff" stroke-linecap="butt" stroke-width="5.6" target-height="32.200012" target-width="0" target-x="560.3" target-y="307.3"/><path d="M 677.90 305.30 L 677.90 319.00" fill="none" group-id="1,2" id="Stroke-113" node-id="63" stroke="#d1efff" stroke-linecap="butt" stroke-width="5.6" target-height="13.700012" target-width="0" target-x="677.9" target-y="305.3"/><path d="M 487.70 456.10 L 487.70 504.90" fill="none" group-id="1,2" id="Stroke-115" node-id="64" stroke="#d1efff" stroke-linecap="butt" stroke-width="5.6" target-height="48.799988" target-width="0" target-x="487.7" target-y="456.1"/><path d="M 457.00 417.90 L 457.00 439.90" fill="none" group-id="1,2" id="Stroke-117" node-id="65" stroke="#d1efff" stroke-linecap="butt" stroke-width="5.6" target-height="22" target-width="0" target-x="457" target-y="417.9"/><path d="M 457.00 451.30 L 457.00 504.90" fill="none" group-id="1,2" id="Stroke-119" node-id="66" stroke="#d1efff" stroke-linecap="butt" stroke-width="5.6" target-height="53.600006" target-width="0" target-x="457" target-y="451.3"/><path d="M 543.90 371.40 L 543.90 317.30" fill="none" group-id="1,2" id="Stroke-121" node-id="67" stroke="#d1efff" stroke-linecap="butt" stroke-width="5.6" target-height="54.100006" target-width="0" target-x="543.9" target-y="317.3"/><path d="M 543.90 310.20 L 543.90 295.20" fill="none" group-id="1,2" id="Stroke-123" node-id="68" stroke="#d1efff" stroke-linecap="butt" stroke-width="5.6" target-height="15" target-width="0" target-x="543.9" target-y="295.2"/><path d="M 512.60 373.60 L 512.60 317.30" fill="none" group-id="1,2" id="Stroke-125" node-id="69" stroke="#d1efff" stroke-linecap="butt" stroke-width="5.6" target-height="56.30002" target-width="0" target-x="512.6" target-y="317.3"/><path d="M 512.60 308.80 L 512.60 293.60" fill="none" group-id="1,2" id="Stroke-127" node-id="70" stroke="#d1efff" stroke-linecap="butt" stroke-width="5.6" target-height="15.199982" target-width="0" target-x="512.6" target-y="293.6"/><path d="M 512.60 287.60 L 512.60 261.90" fill="none" group-id="1,2" id="Stroke-129" node-id="71" stroke="#d1efff" stroke-linecap="butt" stroke-width="5.6" target-height="25.700012" target-width="0" target-x="512.6" target-y="261.9"/><path d="M 528.40 369.00 L 528.40 355.20" fill="none" group-id="1,2" id="Stroke-131" node-id="72" stroke="#d1efff" stroke-linecap="butt" stroke-width="5.6" target-height="13.799988" target-width="0" target-x="528.4" target-y="355.2"/><path d="M 528.40 347.90 L 528.40 304.40" fill="none" group-id="1,2" id="Stroke-133" node-id="73" stroke="#d1efff" stroke-linecap="butt" stroke-width="5.6" target-height="43.5" target-width="0" target-x="528.4" target-y="304.4"/><path d="M 528.40 296.90 L 528.40 261.90" fill="none" group-id="1,2" id="Stroke-135" node-id="74" stroke="#d1efff" stroke-linecap="butt" stroke-width="5.6" target-height="35" target-width="0" target-x="528.4" target-y="261.9"/><path d="M 751.60 493.20 L 751.60 509.10" fill="none" group-id="1,2" id="Stroke-137" node-id="75" stroke="#d1efff" stroke-linecap="butt" stroke-width="5.6" target-height="15.899994" target-width="0" target-x="751.6" target-y="493.2"/><path d="M 751.60 457.00 L 751.60 486.00" fill="none" group-id="1,2" id="Stroke-139" node-id="76" stroke="#d1efff" stroke-linecap="butt" stroke-width="5.6" target-height="29" target-width="0" target-x="751.6" target-y="457"/><path d="M 781.40 417.80 L 781.40 447.60" fill="none" group-id="1,2" id="Stroke-141" node-id="77" stroke="#d1efff" stroke-linecap="butt" stroke-width="5.6" target-height="29.800018" target-width="0" target-x="781.4" target-y="417.8"/><path d="M 781.40 454.20 L 781.40 511.40" fill="none" group-id="1,2" id="Stroke-143" node-id="78" stroke="#d1efff" stroke-linecap="butt" stroke-width="5.6" target-height="57.19998" target-width="0" target-x="781.4" target-y="454.2"/><path d="M 797.40 417.80 L 797.40 461.60" fill="none" group-id="1,2" id="Stroke-145" node-id="79" stroke="#d1efff" stroke-linecap="butt" stroke-width="5.6" target-height="43.80002" target-width="0" target-x="797.4" target-y="417.8"/><path d="M 797.40 472.70 L 797.40 509.60" fill="none" group-id="1,2" id="Stroke-147" node-id="80" stroke="#d1efff" stroke-linecap="butt" stroke-width="5.6" target-height="36.899994" target-width="0" target-x="797.4" target-y="472.7"/><path d="M 766.40 417.80 L 766.40 439.80" fill="none" group-id="1,2" id="Stroke-149" node-id="81" stroke="#d1efff" stroke-linecap="butt" stroke-width="5.6" target-height="22" target-width="0" target-x="766.4" target-y="417.8"/><path d="M 736.30 469.50 L 736.30 491.50" fill="none" group-id="1,2" id="Stroke-151" node-id="82" stroke="#d1efff" stroke-linecap="butt" stroke-width="5.6" target-height="22" target-width="0" target-x="736.3" target-y="469.5"/><path d="M 766.40 446.80 L 766.40 505.10" fill="none" group-id="1,2" id="Stroke-153" node-id="83" stroke="#d1efff" stroke-linecap="butt" stroke-width="5.6" target-height="58.30002" target-width="0" target-x="766.4" target-y="446.8"/><path d="M 711.20 261.50 L 711.20 302.50" fill="none" group-id="1,2" id="Stroke-155" node-id="84" stroke="#d1efff" stroke-linecap="butt" stroke-width="5.6" target-height="41" target-width="0" target-x="711.2" target-y="261.5"/><path d="M 711.20 310.70 L 711.20 334.20" fill="none" group-id="1,2" id="Stroke-157" node-id="85" stroke="#d1efff" stroke-linecap="butt" stroke-width="5.6" target-height="23.5" target-width="0" target-x="711.2" target-y="310.7"/><path d="M 711.20 340.50 L 711.20 365.20" fill="none" group-id="1,2" id="Stroke-159" node-id="86" stroke="#d1efff" stroke-linecap="butt" stroke-width="5.6" target-height="24.700012" target-width="0" target-x="711.2" target-y="340.5"/><path d="M 727.10 261.50 L 727.10 296.90" fill="none" group-id="1,2" id="Stroke-161" node-id="87" stroke="#d1efff" stroke-linecap="butt" stroke-width="5.6" target-height="35.399994" target-width="0" target-x="727.1" target-y="261.5"/><path d="M 727.10 304.10 L 727.10 326.20" fill="none" group-id="1,2" id="Stroke-163" node-id="88" stroke="#d1efff" stroke-linecap="butt" stroke-width="5.6" target-height="22.100006" target-width="0" target-x="727.1" target-y="304.1"/><path d="M 727.10 334.00 L 727.10 369.00" fill="none" group-id="1,2" id="Stroke-165" node-id="89" stroke="#d1efff" stroke-linecap="butt" stroke-width="5.6" target-height="35" target-width="0" target-x="727.1" target-y="334"/><path d="M 695.40 301.20 L 695.40 328.10" fill="none" group-id="1,2" id="Stroke-167" node-id="90" stroke="#d1efff" stroke-linecap="butt" stroke-width="5.6" target-height="26.899994" target-width="0" target-x="695.4" target-y="301.2"/><path d="M 695.40 335.30 L 695.40 369.00" fill="none" group-id="1,2" id="Stroke-169" node-id="91" stroke="#d1efff" stroke-linecap="butt" stroke-width="5.6" target-height="33.700012" target-width="0" target-x="695.4" target-y="335.3"/><path d="M 548.20 191.40 L 548.20 216.80" fill="none" group-id="1,2" id="Stroke-171" node-id="92" stroke="#d1efff" stroke-linecap="butt" stroke-width="5.6" target-height="25.40001" target-width="0" target-x="548.2" target-y="191.4"/><path d="M 548.20 171.10 L 548.20 182.50" fill="none" group-id="1,2" id="Stroke-173" node-id="93" stroke="#d1efff" stroke-linecap="butt" stroke-width="5.6" target-height="11.399994" target-width="0" target-x="548.2" target-y="171.1"/><path d="M 548.20 123.90 L 548.20 163.50" fill="none" group-id="1,2" id="Stroke-175" node-id="94" stroke="#d1efff" stroke-linecap="butt" stroke-width="5.6" target-height="39.6" target-width="0" target-x="548.2" target-y="123.9"/><path d="M 561.80 167.50 L 561.80 210.00" fill="none" group-id="1,2" id="Stroke-177" node-id="95" stroke="#d1efff" stroke-linecap="butt" stroke-width="5.6" target-height="42.5" target-width="0" target-x="561.8" target-y="167.5"/><path d="M 677.40 149.20 L 677.40 201.00" fill="none" group-id="1,2" id="Stroke-179" node-id="96" stroke="#d1efff" stroke-linecap="butt" stroke-width="5.6" target-height="51.800003" target-width="0" target-x="677.4" target-y="149.2"/><path d="M 561.80 147.10 L 561.80 158.50" fill="none" group-id="1,2" id="Stroke-181" node-id="97" stroke="#d1efff" stroke-linecap="butt" stroke-width="5.6" target-height="11.399994" target-width="0" target-x="561.8" target-y="147.1"/><path d="M 551.70 71.40 L 550.20 75.00 L 549.20 78.80 L 548.50 82.90 L 548.20 87.10 L 548.20 112.70" fill="none" group-id="1,2" id="Stroke-183" node-id="98" stroke="#d1efff" stroke-linecap="butt" stroke-width="5.6" target-height="41.299995" target-width="3.5" target-x="548.2" target-y="71.4"/><path d="M 563.40 57.00 L 559.90 59.90 L 556.80 63.20" fill="none" group-id="1,2" id="Stroke-185" node-id="99" stroke="#d1efff" stroke-linecap="butt" stroke-width="5.6" target-height="6.200001" target-width="6.6000366" target-x="556.8" target-y="57"/><path d="M 619.80 112.70 L 619.80 87.10 L 619.40 82.00 L 618.50 77.30 L 617.00 72.70 L 614.90 68.50 L 612.30 64.60 L 609.30 61.00 L 605.80 57.90 L 602.00 55.20 L 597.90 53.10 L 591.20 50.90 L 584.00 50.20 L 579.90 50.40 L 576.00 51.10 L 572.30 52.20 L 568.70 53.70" fill="none" group-id="1,2" id="Stroke-187" node-id="100" stroke="#d1efff" stroke-linecap="butt" stroke-width="5.6" target-height="62.499996" target-width="51.099976" target-x="568.7" target-y="50.2"/><path d="M 691.30 162.00 L 691.30 216.80" fill="none" group-id="1,2" id="Stroke-189" node-id="101" stroke="#d1efff" stroke-linecap="butt" stroke-width="5.6" target-height="54.800003" target-width="0" target-x="691.3" target-y="162"/><path d="M 691.30 123.90 L 691.30 145.90" fill="none" group-id="1,2" id="Stroke-191" node-id="102" stroke="#d1efff" stroke-linecap="butt" stroke-width="5.6" target-height="21.999992" target-width="0" target-x="691.3" target-y="123.9"/><path d="M 664.40 163.50 L 664.40 185.50" fill="none" group-id="1,2" id="Stroke-193" node-id="103" stroke="#d1efff" stroke-linecap="butt" stroke-width="5.6" target-height="22" target-width="0" target-x="664.4" target-y="163.5"/><path d="M 691.30 100.90 L 691.30 114.30" fill="none" group-id="1,2" id="Stroke-195" node-id="104" stroke="#d1efff" stroke-linecap="butt" stroke-width="5.6" target-height="13.400002" target-width="0" target-x="691.3" target-y="100.9"/><path d="M 575.10 163.30 L 575.10 176.60" fill="none" group-id="1,2" id="Stroke-197" node-id="105" stroke="#d1efff" stroke-linecap="butt" stroke-width="5.6" target-height="13.300003" target-width="0" target-x="575.1" target-y="163.3"/><path d="M 684.80 65.90 L 688.30 72.30 L 689.60 75.80 L 691.10 83.20 L 691.30 87.10" fill="none" group-id="1,2" id="Stroke-199" node-id="106" stroke="#d1efff" stroke-linecap="butt" stroke-width="5.6" target-height="21.199997" target-width="6.5" target-x="684.8" target-y="65.9"/><path d="M 619.80 112.70 L 619.80 87.10 L 620.10 82.00 L 621.10 77.30 L 622.60 72.70 L 624.70 68.50 L 627.30 64.60 L 630.30 61.00 L 633.70 57.90 L 637.50 55.20 L 641.70 53.10 L 648.30 50.90 L 651.90 50.40 L 655.60 50.20 L 663.00 51.00 L 669.90 53.30 L 676.10 56.90" fill="none" group-id="1,2" id="Stroke-201" node-id="107" stroke="#d1efff" stroke-linecap="butt" stroke-width="5.6" target-height="62.499996" target-width="56.299988" target-x="619.8" target-y="50.2"/><path d="M 589.80 118.30 L 589.60 105.80 L 588.90 103.40 L 587.90 101.20 L 586.50 99.20 L 584.90 97.50 L 583.00 96.10 L 580.80 95.00 L 578.50 94.40 L 576.00 94.10 L 573.90 94.30 L 570.10 95.50" fill="none" group-id="1,2" id="Stroke-203" node-id="108" stroke="#d1efff" stroke-linecap="butt" stroke-width="5.6" target-height="24.200005" target-width="19.700012" target-x="570.1" target-y="94.1"/><path d="M 650.80 118.30 L 651.00 105.80 L 651.70 103.40 L 652.70 101.20 L 654.10 99.20 L 655.70 97.50 L 657.60 96.10 L 659.80 95.00 L 662.10 94.40 L 664.60 94.10 L 667.50 94.40 L 670.10 95.30 L 672.50 96.70" fill="none" group-id="1,2" id="Stroke-205" node-id="109" stroke="#d1efff" stroke-linecap="butt" stroke-width="5.6" target-height="24.200005" target-width="21.700012" target-x="650.8" target-y="94.1"/><path d="M 579.80 72.80 L 576.90 73.20 L 571.40 75.00" fill="none" group-id="1,2" id="Stroke-207" node-id="110" stroke="#d1efff" stroke-linecap="butt" stroke-width="5.6" target-height="2.199997" target-width="8.399963" target-x="571.4" target-y="72.8"/><path d="M 604.10 112.70 L 603.80 92.90 L 603.20 89.80 L 602.10 86.80 L 600.60 83.90 L 598.80 81.40 L 596.70 79.10 L 594.40 77.00 L 591.70 75.40 L 588.90 74.10" fill="none" group-id="1,2" id="Stroke-209" node-id="111" stroke="#d1efff" stroke-linecap="butt" stroke-width="5.6" target-height="38.6" target-width="15.199951" target-x="588.9" target-y="74.1"/><path d="M 639.30 82.20 L 641.60 79.50 L 644.30 77.20 L 647.20 75.30 L 650.50 73.90 L 653.90 73.00 L 657.60 72.70 L 661.20 73.00 L 664.60 73.90 L 667.80 75.20 L 670.70 77.00" fill="none" group-id="1,2" id="Stroke-211" node-id="112" stroke="#d1efff" stroke-linecap="butt" stroke-width="5.6" target-height="9.5" target-width="31.400024" target-x="639.3" target-y="72.7"/><path d="M 634.70 112.70 L 634.70 96.30 L 635.00 92.50 L 635.90 88.90" fill="none" group-id="1,2" id="Stroke-213" node-id="113" stroke="#d1efff" stroke-linecap="butt" stroke-width="5.6" target-height="23.799995" target-width="1.2000122" target-x="634.7" target-y="88.9"/><path d="M 601.40 10.40 L 598.70 8.40 L 593.10 5.50 L 587.10 3.90 L 584.00 3.70" fill="none" group-id="1,2" id="Stroke-215" node-id="114" stroke="#d1efff" stroke-linecap="butt" stroke-width="5.6" target-height="6.7" target-width="17.400024" target-x="584" target-y="3.7"/><path d="M 619.80 94.10 L 619.80 57.10 L 619.00 46.20 L 618.10 41.10 L 615.30 31.40 L 613.50 27.00 L 609.20 19.20" fill="none" group-id="1,2" id="Stroke-217" node-id="115" stroke="#d1efff" stroke-linecap="butt" stroke-width="5.6" target-height="74.899994" target-width="10.599976" target-x="609.2" target-y="19.2"/><path d="M 647.90 4.90 L 651.70 4.00 L 655.60 3.70" fill="none" group-id="1,2" id="Stroke-219" node-id="116" stroke="#d1efff" stroke-linecap="butt" stroke-width="5.6" target-height="1.2" target-width="7.699951" target-x="647.9" target-y="3.7"/><path d="M 619.80 94.10 L 619.80 57.10 L 620.10 50.20 L 620.90 43.70 L 622.30 37.60 L 624.20 31.60 L 626.50 26.10 L 629.10 21.20 L 633.90 14.60 L 639.30 9.50" fill="none" group-id="1,2" id="Stroke-221" node-id="117" stroke="#d1efff" stroke-linecap="butt" stroke-width="5.6" target-height="84.6" target-width="19.5" target-x="619.8" target-y="9.5"/><path d="M 675.60 137.80 L 563.90 137.80 L 564.20 134.40 L 564.80 131.10 L 565.90 128.00 L 567.40 125.10 L 569.20 122.50 L 571.30 120.10 L 573.70 117.90 L 576.30 116.10 L 579.30 114.70 L 582.30 113.60 L 585.60 112.90 L 589.00 112.70 L 650.50 112.70 L 654.00 112.90 L 657.20 113.60 L 660.30 114.70 L 663.20 116.10 L 665.90 117.90 L 668.30 120.10 L 670.40 122.50 L 672.20 125.10 L 673.70 128.00 L 674.70 131.10 L 675.40 134.40 L 675.60 137.80" fill="#cfedff" fill-rule="evenodd" group-id="1,2" id="Fill-223" node-id="118" stroke="none" target-height="25.100006" target-width="111.69995" target-x="563.9" target-y="112.7"/><path d="M 682.50 502.90 L 557.00 502.90 L 557.40 498.40 L 558.20 494.20 L 559.60 490.20 L 561.50 486.50 L 563.80 483.00 L 566.60 479.90 L 569.70 477.10 L 573.10 474.80 L 576.90 472.90 L 580.90 471.50 L 585.10 470.70 L 589.60 470.40 L 650.00 470.40 L 654.40 470.70 L 658.60 471.50 L 662.60 472.90 L 666.40 474.80 L 669.90 477.10 L 673.00 479.90 L 675.70 483.00 L 678.10 486.50 L 680.00 490.20 L 681.40 494.20 L 682.20 498.40 L 682.50 502.90" fill="#aad5ff" fill-rule="evenodd" group-id="1,2" id="Fill-225" node-id="119" stroke="none" target-height="32.5" target-width="125.5" target-x="557" target-y="470.4"/><path d="M 575.10 137.80 L 664.40 137.80 L 664.20 141.70 L 663.40 145.40 L 662.20 148.90 L 660.50 152.20 L 658.50 155.30 L 656.10 158.00 L 653.30 160.40 L 650.30 162.50 L 647.00 164.10 L 643.50 165.30 L 639.80 166.10 L 635.90 166.40 L 603.70 166.40 L 599.80 166.10 L 596.10 165.30 L 592.60 164.10 L 589.30 162.50 L 586.20 160.40 L 583.50 158.00 L 581.10 155.30 L 579.10 152.20 L 577.40 148.90 L 576.20 145.40 L 575.40 141.70 L 575.10 137.80" fill="#aad5ff" fill-rule="evenodd" group-id="1,2" id="Fill-227" node-id="120" stroke="none" target-height="28.59999" target-width="89.30005" target-x="575.1" target-y="137.8"/><path d="M 440.00 417.80 L 799.60 417.80" fill="none" group-id="1,2" id="Stroke-229" node-id="121" stroke="#c3e4ff" stroke-linecap="butt" stroke-width="10.5" target-height="0" target-width="359.59998" target-x="440" target-y="417.8"/><path d="M 354.10 542.40 L 359.90 542.60 L 364.20 543.20 L 368.20 544.10 L 380.90 548.60 L 384.80 549.50 L 389.20 550.10 L 395.00 550.30 L 400.80 550.10 L 405.10 549.50 L 409.10 548.60 L 421.80 544.10 L 425.80 543.20 L 430.10 542.60 L 435.90 542.40 L 441.70 542.60 L 446.10 543.20 L 450.00 544.10 L 462.70 548.60 L 466.70 549.50 L 471.00 550.10 L 476.80 550.30 L 482.60 550.10 L 487.00 549.50 L 490.90 548.60 L 503.60 544.10 L 507.60 543.20 L 511.90 542.60 L 517.70 542.40 L 523.60 542.60 L 527.90 543.20 L 531.80 544.10 L 544.60 548.60 L 548.50 549.50 L 552.90 550.10 L 558.70 550.30 L 564.50 550.10 L 568.80 549.50 L 572.80 548.60 L 585.50 544.10 L 589.40 543.20 L 593.80 542.60 L 599.60 542.40 L 605.40 542.60 L 609.70 543.20 L 613.70 544.10 L 626.40 548.60 L 630.40 549.50 L 634.70 550.10 L 640.50 550.30 L 646.30 550.10 L 650.60 549.50 L 654.60 548.60 L 667.30 544.10 L 671.30 543.20 L 675.60 542.60 L 681.40 542.40 L 687.20 542.60 L 691.60 543.20 L 695.50 544.10 L 708.20 548.60 L 712.20 549.50 L 716.50 550.10 L 722.30 550.30 L 728.10 550.10 L 732.50 549.50 L 736.40 548.60 L 749.20 544.10 L 753.10 543.20 L 757.40 542.60 L 763.30 542.40 L 769.10 542.60 L 773.40 543.20 L 777.40 544.10 L 790.10 548.60 L 798.40 550.10 L 804.20 550.30 L 810.00 550.10 L 814.30 549.50 L 818.30 548.60 L 831.00 544.10 L 834.90 543.20 L 839.30 542.60 L 845.10 542.40 L 850.90 542.60 L 855.20 543.20 L 859.20 544.10 L 871.90 548.60 L 875.90 549.50 L 880.20 550.10 L 886.00 550.30" fill="none" group-id="1,2" id="Stroke-231" node-id="122" stroke="#d1efff" stroke-linecap="square" stroke-width="10.5" target-height="7.8999634" target-width="531.9" target-x="354.1" target-y="542.4"/><path d="M 448.20 392.20 L 453.80 392.50 L 457.90 393.10 L 461.60 394.10 L 473.70 398.80 L 477.40 399.80 L 481.50 400.40 L 487.00 400.60 L 492.60 400.40 L 496.70 399.80 L 500.40 398.80 L 512.50 394.10 L 516.20 393.10 L 520.30 392.50 L 525.80 392.20 L 531.30 392.50 L 535.50 393.10 L 539.20 394.10 L 551.30 398.80 L 555.00 399.80 L 559.10 400.40 L 564.60 400.60 L 570.10 400.40 L 574.30 399.80 L 578.00 398.80 L 590.10 394.10 L 593.80 393.10 L 597.90 392.50 L 603.40 392.20 L 608.90 392.50 L 613.10 393.10 L 616.80 394.10 L 628.90 398.80 L 632.60 399.80 L 636.70 400.40 L 642.20 400.60 L 647.70 400.40 L 651.90 399.80 L 655.60 398.80 L 667.70 394.10 L 671.40 393.10 L 675.50 392.50 L 681.00 392.20 L 686.50 392.50 L 690.60 393.10 L 694.40 394.10 L 706.50 398.80 L 710.20 399.80 L 714.30 400.40 L 719.80 400.60 L 725.30 400.40 L 729.40 399.80 L 733.20 398.80 L 745.30 394.10 L 749.00 393.10 L 753.10 392.50 L 758.60 392.20 L 764.10 392.50 L 768.30 393.10 L 772.00 394.10 L 784.10 398.80 L 787.80 399.80 L 791.90 400.40 L 797.40 400.60" fill="none" group-id="1,2" id="Stroke-233" node-id="123" stroke="#c3e4ff" stroke-linecap="butt" stroke-width="10.5" target-height="8.399994" target-width="349.2" target-x="448.2" target-y="392.2"/><path d="M 509.70 262.10 L 729.80 262.10" fill="none" group-id="1,2" id="Stroke-235" node-id="124" stroke="#c3e4ff" stroke-linecap="butt" stroke-width="10.5" target-height="0" target-width="220.09998" target-x="509.7" target-y="262.1"/><path d="M 725.70 244.10 L 720.70 243.90 L 716.90 243.30 L 713.50 242.40 L 702.50 237.90 L 699.10 237.00 L 695.30 236.40 L 690.30 236.20 L 685.30 236.40 L 681.50 237.00 L 678.10 237.90 L 667.10 242.40 L 663.70 243.30 L 659.90 243.90 L 654.90 244.10 L 649.90 243.90 L 646.10 243.30 L 642.70 242.40 L 631.70 237.90 L 628.30 237.00 L 624.50 236.40 L 619.50 236.20 L 614.50 236.40 L 610.70 237.00 L 607.30 237.90 L 596.30 242.40 L 589.10 243.90 L 584.10 244.10 L 579.10 243.90 L 575.30 243.30 L 571.90 242.40 L 560.90 237.90 L 557.50 237.00 L 553.70 236.40 L 548.70 236.20 L 543.70 236.40 L 539.90 237.00 L 536.50 237.90 L 525.50 242.40 L 522.10 243.30 L 518.30 243.90 L 513.30 244.10" fill="none" group-id="1,2" id="Stroke-237" node-id="125" stroke="#c3e4ff" stroke-linecap="butt" stroke-width="10.5" target-height="7.900009" target-width="212.40002" target-x="513.3" target-y="236.2"/><path d="M 563.90 137.80 L 675.60 137.80" fill="none" group-id="1,2" id="Stroke-239" node-id="126" stroke="#c3e4ff" stroke-linecap="butt" stroke-width="10.5" target-height="0" target-width="111.69995" target-x="563.9" target-y="137.8"/><g node-id="135"><path d="M 1232.60 585.30 L 7.00 585.30" fill="#e8f6ff" fill-rule="evenodd" group-id="1,2,3" id="Fill-241" node-id="128" stroke="none" target-height="0" target-width="1225.6" target-x="7" target-y="585.3"/><path d="M 1232.60 585.30 L 7.00 585.30" fill="none" group-id="1,2,3" id="Stroke-243" node-id="129" stroke="#d6eeff" stroke-linecap="round" stroke-width="14" target-height="0" target-width="1225.6" target-x="7" target-y="585.3"/></g></g></g></svg>