<svg height="639" node-id="1" sillyvg="true" template-height="639" template-width="1240" version="1.1" viewBox="0 0 1240 639" width="1240" xmlns="http://www.w3.org/2000/svg" xmlns:xlink="http://www.w3.org/1999/xlink"><defs node-id="69"><mask height="680.13745" id="mask-2" maskUnits="userSpaceOnUse" node-id="39" width="342.90442" x="72.63216" y="-56.331856"><path d="M 101.20 0.30 L 387.00 0.30 L 387.00 567.10 L 101.20 567.10 Z" fill="#ffffff" fill-rule="evenodd" node-id="74" stroke="none" target-height="566.8" target-width="285.8" target-x="101.2" target-y="0.3"/></mask></defs><g node-id="76"><g node-id="77"><path d="M 1135.00 380.80 L 1134.70 390.50 L 1134.00 399.80 L 1132.80 408.50 L 1131.10 416.70 L 1129.00 424.60 L 1126.40 432.40 L 1123.40 439.80 L 1120.00 446.70 L 1116.30 453.30 L 1112.20 459.40 L 1107.70 465.30 L 1102.80 470.70 L 1097.70 475.80 L 1092.20 480.50 L 1086.40 484.80 L 1080.30 488.70 L 1074.00 492.20 L 1067.40 495.30 L 1060.50 498.00 L 1053.30 500.40 L 1046.00 502.20 L 1038.50 503.70 L 1030.80 504.80 L 1022.80 505.40 L 1014.60 505.70 L 1006.30 505.40 L 998.30 504.80 L 990.60 503.70 L 983.10 502.20 L 975.90 500.40 L 968.70 498.00 L 961.80 495.30 L 955.20 492.20 L 948.80 488.70 L 942.70 484.80 L 936.90 480.50 L 931.50 475.80 L 926.30 470.70 L 921.50 465.30 L 916.90 459.40 L 912.80 453.30 L 909.10 446.70 L 905.70 439.80 L 902.70 432.40 L 900.10 424.60 L 898.00 416.70 L 896.40 408.50 L 895.20 399.80 L 894.40 390.50 L 894.10 380.80 L 894.50 362.00 L 895.30 343.00 L 896.80 323.90 L 898.80 304.80 L 901.30 285.80 L 904.30 266.90 L 907.70 248.00 L 911.50 229.60 L 915.70 211.60 L 920.20 193.60 L 925.00 176.40 L 930.00 159.80 L 935.40 143.40 L 946.40 113.40 L 952.40 99.00 L 958.20 86.00 L 964.00 74.20 L 970.20 62.50 L 976.10 52.50 L 981.80 43.90 L 986.50 37.50 L 990.90 32.20 L 995.10 27.90 L 999.00 24.40 L 1002.50 21.70 L 1005.90 19.80 L 1008.90 18.50 L 1011.80 17.70 L 1014.60 17.50 L 1017.30 17.70 L 1020.20 18.50 L 1023.30 19.80 L 1026.60 21.70 L 1030.20 24.40 L 1034.10 27.90 L 1038.20 32.20 L 1042.60 37.50 L 1047.30 43.90 L 1053.00 52.50 L 1058.90 62.50 L 1065.20 74.20 L 1070.90 86.00 L 1076.80 99.00 L 1082.70 113.40 L 1088.30 127.90 L 1093.70 143.40 L 1099.10 159.80 L 1104.10 176.40 L 1108.90 193.60 L 1113.50 211.60 L 1117.60 229.60 L 1121.40 248.00 L 1124.80 266.90 L 1127.80 285.80 L 1130.30 304.80 L 1132.30 323.90 L 1133.80 343.00 L 1134.70 362.00 L 1135.00 380.80" fill="#c3e4ff" fill-rule="evenodd" group-id="1,2" id="Fill-1" node-id="9" stroke="none" target-height="488.2" target-width="240.90002" target-x="894.1" target-y="17.5"/><path d="M 1014.60 261.60 L 1014.60 631.50" fill="none" group-id="1,2" id="Stroke-3" node-id="10" stroke="#e8f6ff" stroke-linecap="square" stroke-width="10.5" target-height="369.9" target-width="0" target-x="1014.6" target-y="261.6"/><path d="M 1047.60 451.80 L 1074.20 425.20" fill="none" group-id="1,2" id="Stroke-5" node-id="11" stroke="#e8f6ff" stroke-linecap="square" stroke-width="7" target-height="26.599976" target-width="26.599976" target-x="1047.6" target-y="425.2"/><path d="M 1047.60 301.70 L 1074.20 275.10" fill="none" group-id="1,2" id="Stroke-7" node-id="12" stroke="#e8f6ff" stroke-linecap="square" stroke-width="7" target-height="26.600006" target-width="26.599976" target-x="1047.6" target-y="275.1"/><path d="M 977.20 339.00 L 976.90 348.30 L 976.20 357.30 L 975.00 366.20 L 973.40 374.80 L 971.30 383.30 L 968.70 391.70 L 965.70 399.90 L 962.40 407.90 L 958.60 415.60 L 954.50 423.10 L 949.90 430.40 L 945.10 437.40 L 939.90 444.10 L 934.30 450.60 L 928.40 456.80 L 922.20 462.70 L 915.80 468.20 L 909.10 473.40 L 902.00 478.30 L 894.70 482.80 L 887.20 487.00 L 879.50 490.70 L 871.60 494.10 L 863.40 497.10 L 855.00 499.60 L 846.50 501.70 L 837.80 503.40 L 829.00 504.60 L 819.90 505.30 L 810.70 505.60 L 801.40 505.30 L 792.40 504.60 L 783.60 503.40 L 774.90 501.70 L 766.40 499.60 L 758.00 497.10 L 749.80 494.10 L 741.90 490.70 L 734.20 487.00 L 726.60 482.80 L 719.30 478.30 L 712.30 473.40 L 705.60 468.20 L 699.10 462.70 L 692.90 456.80 L 687.10 450.60 L 681.50 444.10 L 676.30 437.40 L 671.40 430.40 L 666.90 423.10 L 662.80 415.60 L 659.00 407.90 L 655.60 399.90 L 652.70 391.70 L 650.10 383.30 L 648.00 374.80 L 646.40 366.20 L 645.20 357.30 L 644.40 348.30 L 644.20 339.00 L 644.40 329.80 L 645.20 320.80 L 646.40 311.90 L 648.00 303.30 L 650.10 294.80 L 652.70 286.30 L 655.60 278.20 L 659.00 270.20 L 662.80 262.50 L 666.90 255.00 L 671.40 247.70 L 676.30 240.70 L 681.50 233.90 L 687.10 227.50 L 692.90 221.30 L 699.10 215.40 L 705.60 209.90 L 712.30 204.70 L 719.30 199.80 L 726.60 195.20 L 734.20 191.10 L 741.90 187.30 L 749.80 184.00 L 758.00 181.00 L 766.40 178.50 L 774.90 176.40 L 783.60 174.70 L 792.40 173.50 L 801.40 172.80 L 810.70 172.50 L 819.90 172.80 L 829.00 173.50 L 837.80 174.70 L 846.50 176.40 L 855.00 178.50 L 863.40 181.00 L 871.60 184.00 L 879.50 187.30 L 887.20 191.10 L 894.70 195.20 L 902.00 199.80 L 909.10 204.70 L 915.80 209.90 L 922.20 215.40 L 928.40 221.30 L 934.30 227.50 L 939.90 233.90 L 945.10 240.70 L 949.90 247.70 L 954.50 255.00 L 958.60 262.50 L 962.40 270.20 L 965.70 278.20 L 968.70 286.30 L 971.30 294.80 L 973.40 303.30 L 975.00 311.90 L 976.20 320.80 L 977.00 329.80 L 977.20 339.00" fill="#e8f6ff" fill-rule="evenodd" group-id="1,2" id="Fill-9" node-id="13" stroke="none" target-height="333.1" target-width="333" target-x="644.2" target-y="172.5"/><path d="M 810.70 306.80 L 810.70 631.50" fill="none" group-id="1,2" id="Stroke-11" node-id="14" stroke="#aad5ff" stroke-linecap="square" stroke-width="10.5" target-height="324.7" target-width="0" target-x="810.7" target-y="306.8"/><path d="M 850.20 452.50 L 876.80 425.80" fill="none" group-id="1,2" id="Stroke-13" node-id="15" stroke="#aad5ff" stroke-linecap="square" stroke-width="8.4" target-height="26.700012" target-width="26.599976" target-x="850.2" target-y="425.8"/><path d="M 850.20 333.10 L 876.80 306.40" fill="none" group-id="1,2" id="Stroke-15" node-id="16" stroke="#aad5ff" stroke-linecap="square" stroke-width="8.4" target-height="26.700012" target-width="26.599976" target-x="850.2" target-y="306.4"/><path d="M 771.20 395.50 L 744.60 368.90" fill="none" group-id="1,2" id="Stroke-17" node-id="17" stroke="#aad5ff" stroke-linecap="square" stroke-width="8.4" target-height="26.600006" target-width="26.600037" target-x="744.6" target-y="368.9"/><path d="M 771.20 335.80 L 744.60 309.20" fill="none" group-id="1,2" id="Stroke-19" node-id="18" stroke="#aad5ff" stroke-linecap="square" stroke-width="8.4" target-height="26.599976" target-width="26.600037" target-x="744.6" target-y="309.2"/><path d="M 579.30 473.70 L 579.00 483.30 L 578.30 492.40 L 577.10 500.80 L 575.40 508.70 L 573.40 516.00 L 570.80 523.50 L 567.90 530.40 L 564.60 536.80 L 561.00 542.80 L 557.00 548.30 L 552.60 553.70 L 547.90 558.60 L 542.90 563.10 L 537.60 567.20 L 532.00 570.90 L 526.20 574.30 L 520.10 577.30 L 513.80 579.90 L 507.20 582.20 L 500.40 584.20 L 491.70 586.10 L 482.80 587.40 L 473.50 588.30 L 463.90 588.50 L 454.30 588.30 L 445.10 587.40 L 436.10 586.10 L 427.50 584.20 L 420.60 582.20 L 414.00 579.90 L 407.70 577.30 L 401.70 574.30 L 395.80 570.90 L 390.20 567.20 L 384.90 563.10 L 380.00 558.60 L 375.30 553.70 L 370.80 548.30 L 366.90 542.80 L 363.20 536.80 L 360.00 530.40 L 357.00 523.50 L 354.40 516.00 L 352.40 508.70 L 350.80 500.80 L 349.60 492.40 L 348.80 483.30 L 348.50 473.70 L 348.90 455.20 L 349.80 436.90 L 351.30 419.00 L 353.50 401.10 L 356.10 383.60 L 359.20 366.70 L 362.80 349.90 L 366.90 333.80 L 371.20 318.40 L 376.10 303.10 L 381.20 288.80 L 386.60 275.40 L 392.40 262.30 L 398.40 250.30 L 404.40 239.40 L 414.20 224.10 L 423.80 211.90 L 429.00 206.20 L 434.10 201.40 L 439.10 197.50 L 443.90 194.20 L 448.10 191.90 L 452.20 190.20 L 456.20 189.00 L 460.10 188.30 L 463.90 188.00 L 467.80 188.30 L 471.60 189.00 L 475.60 190.20 L 479.70 191.90 L 483.90 194.20 L 488.80 197.50 L 493.70 201.40 L 498.80 206.20 L 504.10 211.90 L 513.70 224.10 L 523.50 239.40 L 529.50 250.30 L 535.40 262.30 L 541.30 275.40 L 546.60 288.80 L 551.70 303.10 L 556.60 318.40 L 561.00 333.80 L 565.00 349.90 L 568.70 366.70 L 571.80 383.60 L 574.40 401.10 L 576.50 419.00 L 578.00 436.90 L 579.00 455.20 L 579.30 473.70" fill="#e8f6ff" fill-rule="evenodd" group-id="1,2" id="Fill-21" node-id="19" stroke="none" target-height="400.5" target-width="230.79999" target-x="348.5" target-y="188"/><path d="M 463.90 345.30 L 463.90 631.50" fill="none" group-id="1,2" id="Stroke-23" node-id="20" stroke="#c3e4ff" stroke-linecap="square" stroke-width="10.5" target-height="286.2" target-width="0" target-x="463.9" target-y="345.3"/><path d="M 489.80 504.90 L 516.40 478.30" fill="none" group-id="1,2" id="Stroke-25" node-id="21" stroke="#c3e4ff" stroke-linecap="square" stroke-width="7" target-height="26.600006" target-width="26.600037" target-x="489.8" target-y="478.3"/><path d="M 489.80 377.10 L 516.40 350.50" fill="none" group-id="1,2" id="Stroke-27" node-id="22" stroke="#c3e4ff" stroke-linecap="square" stroke-width="7" target-height="26.600006" target-width="26.600037" target-x="489.8" target-y="350.5"/><path d="M 442.20 504.90 L 415.30 477.90" fill="none" group-id="1,2" id="Stroke-29" node-id="23" stroke="#c3e4ff" stroke-linecap="square" stroke-width="7" target-height="27" target-width="26.900024" target-x="415.3" target-y="477.9"/><path d="M 440.30 441.80 L 413.40 414.90" fill="none" group-id="1,2" id="Stroke-31" node-id="24" stroke="#c3e4ff" stroke-linecap="square" stroke-width="7" target-height="26.899994" target-width="26.899994" target-x="413.4" target-y="414.9"/><path d="M 961.00 630.00 L 660.80 631.50 L 652.30 620.40 L 642.30 606.50 L 632.40 591.10 L 627.80 583.10 L 621.40 570.20 L 617.90 560.70 L 616.70 556.00 L 616.10 551.80 L 616.10 548.20 L 616.50 545.40 L 617.20 543.10 L 618.30 541.00 L 619.80 539.10 L 621.40 537.90 L 623.30 537.20 L 625.50 537.00 L 630.20 537.90 L 637.10 540.80 L 654.70 550.50 L 658.60 552.40 L 663.60 554.00 L 665.60 554.30 L 667.60 554.20 L 669.20 553.50 L 670.60 552.40 L 671.40 550.10 L 671.00 546.30 L 669.60 542.00 L 667.00 536.40 L 660.00 524.00 L 643.80 496.90 L 637.60 484.70 L 636.20 480.90 L 634.90 475.10 L 635.00 473.20 L 635.40 471.60 L 636.10 470.40 L 637.20 469.40 L 639.40 468.40 L 641.80 467.90 L 644.40 468.00 L 647.50 468.60 L 651.40 470.00 L 655.80 472.20 L 665.60 478.70 L 676.30 487.40 L 692.70 502.90 L 724.40 535.60 L 737.70 548.80 L 743.50 553.90 L 747.80 556.90 L 750.00 558.10 L 751.60 558.60 L 752.80 558.50 L 753.70 558.10 L 755.00 555.80 L 755.10 552.00 L 753.70 545.90 L 749.70 536.00 L 733.20 501.60 L 730.50 494.90 L 728.60 489.20 L 727.70 485.40 L 727.40 482.30 L 727.40 479.80 L 727.90 478.00 L 728.60 476.50 L 729.70 475.40 L 731.20 474.60 L 733.00 474.10 L 734.90 474.10 L 737.00 474.60 L 739.50 475.60 L 742.50 477.30 L 749.70 483.00 L 755.20 488.30 L 767.30 501.80 L 797.90 539.20 L 803.70 545.70 L 812.20 553.90 L 815.20 556.20 L 819.90 558.50 L 821.70 558.80 L 823.20 558.70 L 824.60 558.10 L 825.70 557.00 L 826.50 555.40 L 827.00 553.30 L 827.10 549.80 L 826.70 545.40 L 824.20 526.40 L 824.40 520.80 L 824.90 518.50 L 825.80 516.40 L 827.10 514.80 L 828.90 513.60 L 830.60 513.00 L 832.50 512.90 L 834.40 513.20 L 836.40 513.90 L 839.00 515.40 L 841.80 517.50 L 844.80 520.40 L 849.00 525.20 L 853.60 531.30 L 862.60 544.80 L 880.20 572.80 L 888.10 583.80 L 893.00 589.10 L 896.70 591.50 L 898.20 591.80 L 899.50 591.80 L 900.80 591.30 L 902.00 590.40 L 903.50 587.90 L 904.00 585.60 L 904.60 577.80 L 905.10 575.30 L 906.20 573.10 L 907.20 571.90 L 908.60 570.80 L 910.60 569.90 L 912.20 569.70 L 914.00 569.80 L 915.90 570.40 L 918.10 571.50 L 923.80 575.90 L 927.10 579.20 L 931.70 584.60 L 936.60 590.90 L 941.40 597.70 L 950.40 611.70 L 961.00 630.00" fill="#c3e4ff" fill-rule="evenodd" group-id="1,2" id="Fill-33" node-id="25" stroke="none" target-height="163.6" target-width="344.90002" target-x="616.1" target-y="467.9"/><path d="M 1104.10 591.50 L 1096.90 602.90 L 1092.60 611.60 L 1090.80 616.40 L 1089.50 621.30 L 1088.60 626.30 L 1065.20 626.30 L 1067.60 622.00 L 1070.40 618.00 L 1073.40 614.20 L 1078.40 609.10 L 1083.50 604.60 L 1088.70 600.60 L 1097.70 594.80 L 1104.10 591.50" fill="#c3e4ff" fill-rule="evenodd" group-id="1,2" id="Fill-35" node-id="26" stroke="none" target-height="34.799988" target-width="38.900024" target-x="1065.2" target-y="591.5"/><path d="M 63.40 594.40 L 70.60 605.80 L 74.80 614.50 L 76.60 619.30 L 78.00 624.20 L 78.80 629.20 L 102.20 629.20 L 99.80 624.90 L 97.10 620.90 L 94.00 617.10 L 89.00 612.00 L 83.90 607.50 L 78.70 603.50 L 69.70 597.70 L 63.40 594.40" fill="#d6eeff" fill-rule="evenodd" group-id="1,2" id="Fill-37" node-id="27" stroke="none" target-height="34.799988" target-width="38.799995" target-x="63.4" target-y="594.4"/><path d="M 572.90 594.90 L 580.10 606.30 L 584.30 615.00 L 586.10 619.80 L 587.50 624.80 L 588.30 629.70 L 611.70 629.70 L 609.30 625.40 L 606.60 621.40 L 603.50 617.60 L 598.50 612.50 L 593.50 608.00 L 588.20 604.10 L 579.20 598.30 L 572.90 594.90" fill="#d6eeff" fill-rule="evenodd" group-id="1,2" id="Fill-39" node-id="28" stroke="none" target-height="34.799988" target-width="38.799988" target-x="572.9" target-y="594.9"/><path d="M 1181.20 605.80 L 1174.50 616.20 L 1169.60 626.30 L 1152.60 626.30 L 1157.40 621.60 L 1167.10 614.00 L 1171.40 611.20 L 1181.20 605.80" fill="#d6eeff" fill-rule="evenodd" group-id="1,2" id="Fill-41" node-id="29" stroke="none" target-height="20.5" target-width="28.599976" target-x="1152.6" target-y="605.8"/><path d="M 213.50 629.20 L 188.60 629.20 L 188.30 623.70 L 186.60 612.40 L 182.60 597.40 L 179.30 588.10 L 186.70 594.60 L 193.80 601.60 L 201.60 610.20 L 208.60 619.60 L 211.40 624.50 L 213.50 629.20" fill="#d6eeff" fill-rule="evenodd" group-id="1,2" id="Fill-43" node-id="30" stroke="none" target-height="41.100037" target-width="34.199997" target-x="179.3" target-y="588.1"/><path d="M 220.90 629.20 L 223.60 622.80 L 225.20 617.60 L 226.40 612.70 L 227.30 606.20 L 236.50 617.40 L 242.00 625.30 L 244.10 629.20 L 220.90 629.20 Z" fill="#d6eeff" fill-rule="evenodd" group-id="1,2" id="Fill-45" node-id="31" stroke="none" target-height="23" target-width="23.200012" target-x="220.9" target-y="606.2"/><path d="M 1023.20 525.40 L 1015.60 549.40 L 1010.50 568.80 L 1008.00 579.80 L 1005.80 591.00 L 1003.90 602.80 L 1002.50 614.60 L 1001.60 626.30 L 970.40 626.30 L 970.60 619.90 L 970.30 613.40 L 969.60 607.00 L 967.30 595.20 L 962.90 580.10 L 969.00 585.70 L 971.70 588.60 L 977.40 596.30 L 981.50 604.10 L 983.80 611.10 L 988.20 595.00 L 990.50 587.50 L 997.10 569.50 L 1001.30 559.90 L 1004.30 553.50 L 1011.10 541.30 L 1015.00 535.50 L 1019.00 530.20 L 1023.20 525.40" fill="#d6eeff" fill-rule="evenodd" group-id="1,2" id="Fill-47" node-id="32" stroke="none" target-height="100.89996" target-width="60.299988" target-x="962.9" target-y="525.4"/><path d="M 1051.30 582.70 L 1041.60 597.10 L 1035.30 608.30 L 1032.40 614.30 L 1029.90 620.40 L 1028.10 626.30 L 1011.10 626.30 L 1013.00 622.50 L 1018.40 613.10 L 1021.80 607.90 L 1025.70 602.80 L 1030.00 597.80 L 1034.70 593.10 L 1039.80 588.90 L 1043.50 586.50 L 1047.30 584.40 L 1051.30 582.70" fill="#d6eeff" fill-rule="evenodd" group-id="1,2" id="Fill-49" node-id="33" stroke="none" target-height="43.599976" target-width="40.200073" target-x="1011.1" target-y="582.7"/><path d="M 1199.10 513.70 L 1198.80 521.90 L 1198.00 529.80 L 1196.70 537.40 L 1195.30 543.10 L 1193.70 548.50 L 1189.40 558.60 L 1186.80 563.40 L 1183.90 567.80 L 1180.60 572.00 L 1177.00 575.80 L 1173.10 579.20 L 1168.90 582.30 L 1164.20 584.90 L 1159.20 587.20 L 1154.10 589.00 L 1148.50 590.30 L 1142.40 591.10 L 1135.80 591.40 L 1129.20 591.10 L 1123.10 590.30 L 1117.50 589.00 L 1112.30 587.20 L 1107.30 584.90 L 1102.70 582.30 L 1098.40 579.20 L 1094.50 575.80 L 1090.90 572.00 L 1087.70 567.80 L 1084.70 563.40 L 1082.10 558.60 L 1079.80 553.70 L 1076.20 543.10 L 1074.80 537.40 L 1073.50 529.80 L 1072.70 521.90 L 1072.50 513.70 L 1072.80 505.70 L 1073.60 497.90 L 1075.10 490.10 L 1077.00 482.40 L 1079.40 475.00 L 1082.20 467.80 L 1085.40 460.80 L 1089.00 454.30 L 1092.80 448.20 L 1097.10 442.30 L 1101.50 437.10 L 1106.00 432.50 L 1110.90 428.30 L 1115.70 424.90 L 1120.60 422.20 L 1124.50 420.60 L 1128.30 419.40 L 1132.10 418.70 L 1135.80 418.50 L 1139.50 418.70 L 1143.30 419.40 L 1147.10 420.60 L 1150.90 422.20 L 1155.80 424.90 L 1160.70 428.30 L 1165.60 432.50 L 1170.10 437.10 L 1174.50 442.30 L 1178.70 448.20 L 1182.60 454.30 L 1186.10 460.80 L 1189.40 467.80 L 1192.20 475.00 L 1194.50 482.40 L 1196.50 490.10 L 1197.90 497.90 L 1198.80 505.70 L 1199.10 513.70" fill="#e8f6ff" fill-rule="evenodd" group-id="1,2" id="Fill-51" node-id="34" stroke="none" target-height="172.90002" target-width="126.599976" target-x="1072.5" target-y="418.5"/><path d="M 1135.80 509.90 L 1135.80 631.50" fill="none" group-id="1,2" id="Stroke-53" node-id="35" stroke="#d6eeff" stroke-linecap="square" stroke-width="10.5" target-height="121.600006" target-width="0" target-x="1135.8" target-y="509.9"/><path d="M 1157.60 523.50 L 1175.80 505.70" fill="none" group-id="1,2" id="Stroke-55" node-id="36" stroke="#d6eeff" stroke-linecap="square" stroke-width="6.3" target-height="17.799988" target-width="18.200073" target-x="1157.6" target-y="505.7"/><path d="M 1115.90 542.20 L 1093.80 522.10" fill="none" group-id="1,2" id="Stroke-57" node-id="37" stroke="#d6eeff" stroke-linecap="square" stroke-width="6.3" target-height="20.100037" target-width="22.099976" target-x="1093.8" target-y="522.1"/><g node-id="78"><g node-id="81"><path d="M 132.30 324.30 L 131.40 322.30 L 128.60 318.80 L 126.00 316.50 L 119.60 311.90 L 114.10 307.30 L 110.00 302.30 L 108.30 299.40 L 106.80 296.00 L 105.40 291.80 L 104.40 287.60 L 103.80 282.50 L 103.60 276.30 L 103.80 271.10 L 104.50 266.40 L 105.50 262.10 L 106.90 258.20 L 110.70 250.80 L 115.60 244.50 L 119.40 240.70 L 123.60 237.30 L 128.10 234.10 L 135.10 229.70 L 157.10 217.70 L 164.00 213.60 L 170.20 209.20 L 173.90 206.00 L 177.20 202.50 L 180.00 198.80 L 181.70 195.80 L 183.10 192.50 L 184.10 188.90 L 184.80 185.10 L 184.90 176.50 L 183.70 169.50 L 182.20 165.20 L 180.20 161.30 L 177.80 157.80 L 172.10 151.40 L 153.70 136.30 L 149.10 132.00 L 146.30 128.90 L 143.90 125.50 L 140.50 119.10 L 138.90 112.50 L 138.50 108.70 L 138.50 103.70 L 139.10 98.00 L 140.20 91.60 L 141.70 85.30 L 146.30 71.80 L 149.20 65.00 L 152.60 58.10 L 156.50 51.20 L 160.70 44.50 L 165.30 38.10 L 170.40 31.90 L 175.80 26.00 L 181.60 20.60 L 187.70 15.60 L 192.60 12.30 L 197.60 9.30 L 202.80 6.70 L 208.20 4.50 L 213.70 2.70 L 219.30 1.40 L 225.20 0.60 L 231.30 0.30 L 239.10 1.10 L 244.50 2.80 L 246.90 4.20 L 250.60 7.50 L 253.40 12.50 L 254.50 15.80 L 255.30 19.50 L 256.00 25.30 L 257.20 45.00 L 258.00 51.80 L 259.30 58.50 L 260.70 62.90 L 262.40 67.10 L 264.70 71.10 L 269.10 76.70 L 271.90 79.30 L 275.10 81.90 L 280.50 85.10 L 285.70 87.70 L 290.90 89.50 L 296.20 90.90 L 306.80 92.40 L 314.70 92.80 L 337.30 92.90 L 342.10 93.30 L 351.00 95.00 L 355.20 96.60 L 359.20 98.70 L 363.10 101.50 L 365.70 103.80 L 368.20 106.70 L 370.70 110.20 L 373.10 114.40 L 375.40 119.60 L 377.30 124.90 L 378.50 130.10 L 379.30 135.30 L 379.50 146.00 L 378.20 156.90 L 376.60 164.00 L 374.50 171.30 L 371.90 178.60 L 367.50 189.40 L 362.60 200.20 L 347.30 231.40 L 343.00 241.10 L 338.50 253.80 L 337.00 259.60 L 335.90 268.40 L 336.30 276.30 L 337.60 282.20 L 339.30 287.20 L 341.30 291.40 L 343.70 295.40 L 346.40 299.00 L 349.20 302.00 L 353.90 306.30 L 371.80 320.10 L 377.60 326.00 L 380.00 329.40 L 382.20 333.20 L 384.10 337.70 L 385.50 342.30 L 386.40 347.80 L 386.90 354.30 L 386.80 359.90 L 386.00 365.10 L 384.70 369.90 L 382.90 374.40 L 380.80 378.70 L 378.20 382.70 L 372.20 390.20 L 363.50 398.60 L 347.70 412.90 L 342.90 417.90 L 338.90 423.00 L 336.60 426.60 L 334.80 430.30 L 333.40 434.30 L 332.70 437.30 L 332.30 444.00 L 332.70 447.70 L 333.50 451.10 L 334.60 454.10 L 336.20 456.60 L 340.30 461.00 L 342.70 463.00 L 355.50 471.40 L 360.00 474.70 L 365.50 480.00 L 368.10 483.20 L 370.40 486.60 L 372.40 490.70 L 374.30 495.50 L 375.60 500.40 L 376.60 506.30 L 377.20 513.30 L 377.00 516.70 L 376.30 520.10 L 375.00 523.60 L 373.00 527.30 L 370.60 530.60 L 367.80 533.90 L 364.30 537.30 L 360.20 540.80 L 354.40 544.90 L 347.80 548.80 L 340.10 552.60 L 332.20 555.90 L 323.60 558.90 L 314.20 561.60 L 304.60 563.80 L 294.50 565.40 L 283.80 566.60 L 267.50 567.10 L 250.40 566.20 L 241.80 565.20 L 233.10 563.70 L 224.20 561.80 L 215.20 559.40 L 206.40 556.60 L 197.60 553.30 L 188.70 549.40 L 179.80 545.00 L 171.10 540.10 L 162.50 534.60 L 154.00 528.50 L 145.40 521.70 L 137.90 515.10 L 131.40 508.80 L 125.90 502.70 L 121.10 497.00 L 116.60 490.80 L 112.80 484.80 L 109.70 479.10 L 107.20 473.60 L 105.00 467.80 L 103.40 462.20 L 102.20 456.70 L 101.60 451.40 L 101.20 444.20 L 101.50 437.20 L 102.40 430.30 L 103.70 423.50 L 105.50 416.90 L 107.60 410.30 L 111.30 400.70 L 127.40 364.60 L 130.50 356.20 L 132.20 350.60 L 133.40 345.20 L 134.00 339.90 L 134.20 335.90 L 133.30 328.20 L 132.30 324.30" fill="#c3e4ff" fill-rule="evenodd" group-id="1,2,3,6" id="Fill-59" node-id="42" stroke="none" target-height="566.8" target-width="285.7" target-x="101.2" target-y="0.3"/></g></g><path d="M 242.00 223.90 L 242.00 631.50" fill="none" group-id="1,2" id="Stroke-62" node-id="43" stroke="#e8f6ff" stroke-linecap="square" stroke-width="10.5" target-height="407.6" target-width="0" target-x="242" target-y="223.9"/><path d="M 281.50 484.50 L 308.20 457.90" fill="none" group-id="1,2" id="Stroke-64" node-id="44" stroke="#e8f6ff" stroke-linecap="square" stroke-width="8.4" target-height="26.600006" target-width="26.700012" target-x="281.5" target-y="457.9"/><path d="M 273.40 341.40 L 300.10 314.70" fill="none" group-id="1,2" id="Stroke-66" node-id="45" stroke="#e8f6ff" stroke-linecap="square" stroke-width="8.4" target-height="26.699982" target-width="26.700012" target-x="273.4" target-y="314.7"/><path d="M 273.40 269.80 L 300.10 243.20" fill="none" group-id="1,2" id="Stroke-68" node-id="46" stroke="#e8f6ff" stroke-linecap="square" stroke-width="8.4" target-height="26.59999" target-width="26.700012" target-x="273.4" target-y="243.2"/><path d="M 203.60 269.80 L 176.90 243.20" fill="none" group-id="1,2" id="Stroke-70" node-id="47" stroke="#e8f6ff" stroke-linecap="square" stroke-width="8.4" target-height="26.59999" target-width="26.700012" target-x="176.9" target-y="243.2"/><path d="M 349.10 627.50 L 341.70 612.80 L 337.80 605.90 L 327.30 589.40 L 321.00 580.60 L 311.60 569.10 L 306.50 563.60 L 301.10 558.30 L 295.50 553.40 L 289.70 548.90" fill="none" group-id="1,2" id="Stroke-72" node-id="48" stroke="#aad5ff" stroke-linecap="square" stroke-width="6.3" target-height="78.599976" target-width="59.399994" target-x="289.7" target-y="548.9"/><path d="M 361.00 629.20 L 360.90 612.50 L 361.80 595.10 L 364.10 574.80 L 366.10 564.20 L 368.60 553.80 L 370.70 547.00 L 373.10 540.50 L 375.80 534.50 L 380.70 526.00 L 386.40 519.10" fill="none" group-id="1,2" id="Stroke-74" node-id="49" stroke="#aad5ff" stroke-linecap="square" stroke-width="6.3" target-height="110.10004" target-width="25.5" target-x="360.9" target-y="519.1"/><path d="M 364.30 519.10 L 364.60 522.40 L 365.40 525.40 L 366.80 528.20 L 368.60 530.70 L 370.70 532.90 L 373.30 534.70 L 376.10 536.00 L 379.10 536.80 L 382.40 537.10 L 385.70 536.80 L 388.70 536.00 L 391.50 534.70 L 394.00 532.90 L 396.20 530.70 L 398.00 528.20 L 399.30 525.40 L 400.10 522.40 L 400.50 519.10 L 400.10 515.80 L 399.30 512.70 L 398.00 509.90 L 396.20 507.40 L 394.00 505.30 L 391.50 503.50 L 388.70 502.10 L 385.70 501.30 L 382.40 501.00 L 379.10 501.30 L 376.10 502.10 L 373.30 503.50 L 370.70 505.30 L 368.60 507.40 L 366.80 509.90 L 365.40 512.70 L 364.60 515.80 L 364.30 519.10" fill="#aad5ff" fill-rule="evenodd" group-id="1,2" id="Fill-76" node-id="50" stroke="none" target-height="36.099976" target-width="36.200012" target-x="364.3" target-y="501"/><path d="M 278.40 556.60 L 278.70 559.90 L 279.50 562.90 L 280.90 565.70 L 282.70 568.30 L 284.80 570.40 L 287.40 572.20 L 290.20 573.60 L 293.20 574.40 L 296.50 574.70 L 299.80 574.40 L 302.80 573.60 L 305.60 572.20 L 308.10 570.40 L 310.30 568.30 L 312.10 565.70 L 313.40 562.90 L 314.30 559.90 L 314.60 556.60 L 314.30 553.30 L 313.40 550.30 L 312.10 547.50 L 310.30 545.00 L 308.10 542.80 L 305.60 541.00 L 302.80 539.70 L 299.80 538.80 L 296.50 538.50 L 293.20 538.80 L 290.20 539.70 L 287.40 541.00 L 284.80 542.80 L 282.70 545.00 L 280.90 547.50 L 279.50 550.30 L 278.70 553.30 L 278.40 556.60" fill="#aad5ff" fill-rule="evenodd" group-id="1,2" id="Fill-78" node-id="51" stroke="none" target-height="36.200012" target-width="36.200012" target-x="278.4" target-y="538.5"/><path d="M 686.50 624.70 L 686.40 616.10 L 686.80 609.10 L 687.60 601.50 L 690.50 585.30 L 694.50 570.20 L 697.10 562.40 L 700.30 554.20 L 704.20 545.60" fill="none" group-id="1,2" id="Stroke-80" node-id="52" stroke="#aad5ff" stroke-linecap="square" stroke-width="6.3" target-height="79.10004" target-width="17.799988" target-x="686.4" target-y="545.6"/><path d="M 675.10 628.40 L 670.60 612.40 L 664.60 595.40 L 660.80 585.70 L 656.00 575.10 L 648.80 560.80 L 640.10 546.40 L 630.10 532.70 L 624.50 526.20 L 618.60 520.20 L 612.30 514.60" fill="none" group-id="1,2" id="Stroke-82" node-id="53" stroke="#aad5ff" stroke-linecap="square" stroke-width="6.3" target-height="113.80005" target-width="62.799988" target-x="612.3" target-y="514.6"/><path d="M 629.50 506.70 L 629.80 510.00 L 629.50 513.10 L 628.70 516.10 L 627.40 518.90 L 625.70 521.40 L 623.50 523.60 L 621.00 525.40 L 618.10 526.80 L 615.00 527.70 L 611.70 528.00 L 608.50 527.70 L 605.50 526.90 L 602.70 525.60 L 600.20 523.80 L 598.00 521.70 L 596.20 519.10 L 594.80 516.30 L 594.00 513.10 L 593.70 509.80 L 593.90 506.70 L 594.80 503.70 L 596.10 500.90 L 597.80 498.40 L 600.00 496.20 L 602.50 494.30 L 605.30 493.00 L 608.50 492.10 L 611.80 491.80 L 615.00 492.10 L 617.90 492.90 L 620.80 494.20 L 623.30 496.00 L 625.50 498.10 L 627.30 500.70 L 628.60 503.50 L 629.50 506.70" fill="#aad5ff" fill-rule="evenodd" group-id="1,2" id="Fill-84" node-id="54" stroke="none" target-height="36.200012" target-width="36.099976" target-x="593.7" target-y="491.8"/><path d="M 726.90 528.90 L 727.20 532.30 L 726.90 535.40 L 726.10 538.40 L 724.80 541.20 L 723.00 543.70 L 720.90 545.90 L 718.30 547.70 L 715.50 549.10 L 712.30 550.00 L 709.00 550.20 L 705.90 550.00 L 702.90 549.10 L 700.10 547.80 L 697.60 546.10 L 695.40 543.90 L 693.60 541.40 L 692.20 538.60 L 691.30 535.40 L 691.00 532.10 L 691.30 529.00 L 692.10 526.00 L 693.40 523.10 L 695.20 520.60 L 697.40 518.40 L 699.90 516.60 L 702.70 515.30 L 705.90 514.40 L 709.20 514.10 L 712.30 514.40 L 715.30 515.20 L 718.10 516.50 L 720.60 518.20 L 722.80 520.40 L 724.70 522.90 L 726.00 525.80 L 726.90 528.90" fill="#aad5ff" fill-rule="evenodd" group-id="1,2" id="Fill-86" node-id="55" stroke="none" target-height="36.100037" target-width="36.200012" target-x="691" target-y="514.1"/><path d="M 423.30 539.10 L 415.60 550.10 L 408.30 561.70 L 400.30 576.20 L 396.40 584.20 L 392.90 592.50 L 389.80 601.00 L 387.30 609.50 L 386.10 615.20 L 385.30 620.80 L 384.90 626.20 L 355.20 626.20 L 359.30 615.30 L 362.60 607.90 L 367.40 598.70 L 370.90 592.60 L 380.20 579.00 L 385.60 572.20 L 391.70 565.30 L 398.60 558.30 L 404.00 553.40 L 416.40 543.80 L 423.30 539.10" fill="#c3e4ff" fill-rule="evenodd" group-id="1,2" id="Fill-88" node-id="56" stroke="none" target-height="87.10004" target-width="68.099976" target-x="355.2" target-y="539.1"/><path d="M 339.10 626.30 L 315.40 626.30 L 312.30 617.80 L 310.50 614.20 L 307.30 609.10 L 301.10 601.60 L 296.50 597.30 L 302.70 599.00 L 307.30 600.70 L 312.20 602.90 L 321.60 608.30 L 329.10 614.20 L 332.70 617.70 L 336.00 621.70 L 339.10 626.30" fill="#c3e4ff" fill-rule="evenodd" group-id="1,2" id="Fill-90" node-id="57" stroke="none" target-height="29" target-width="42.600006" target-x="296.5" target-y="597.3"/><path d="M 775.10 579.20 L 779.40 590.30 L 780.90 595.50 L 783.90 608.10 L 784.90 615.20 L 785.50 622.40 L 785.50 629.70 L 824.60 629.70 L 825.00 625.60 L 826.90 616.90 L 830.70 605.00 L 833.70 597.50 L 827.90 600.60 L 823.60 603.50 L 819.30 607.00 L 814.30 611.80 L 811.10 615.30 L 804.80 624.40 L 801.80 614.70 L 800.10 610.30 L 795.20 600.20 L 792.10 595.00 L 789.80 591.70 L 784.60 585.80 L 781.60 583.20 L 778.50 581.00 L 775.10 579.20" fill="#d6eeff" fill-rule="evenodd" group-id="1,2" id="Fill-92" node-id="58" stroke="none" target-height="50.5" target-width="58.600037" target-x="775.1" target-y="579.2"/><path d="M 713.80 590.70 L 710.50 597.30 L 706.40 607.20 L 704.40 613.40 L 702.70 619.90 L 701.50 627.00 L 664.20 630.80 L 662.60 622.70 L 661.00 616.40 L 659.10 610.90 L 656.20 604.40 L 661.40 606.50 L 668.80 610.70 L 672.90 613.90 L 675.50 616.30 L 680.20 622.30 L 682.80 617.80 L 687.90 610.80 L 691.60 606.60 L 695.90 602.50 L 701.10 598.20 L 704.90 595.60 L 713.80 590.70" fill="#d6eeff" fill-rule="evenodd" group-id="1,2" id="Fill-94" node-id="59" stroke="none" target-height="40.099976" target-width="57.599976" target-x="656.2" target-y="590.7"/><path d="M 216.70 460.70 L 216.40 471.50 L 215.70 482.10 L 214.40 492.40 L 212.60 502.60 L 210.30 512.40 L 207.50 521.60 L 204.90 528.50 L 202.10 535.00 L 199.00 541.10 L 195.60 547.00 L 191.90 552.60 L 187.80 557.70 L 183.40 562.50 L 178.80 566.90 L 173.80 570.80 L 168.40 574.30 L 162.70 577.30 L 156.60 579.90 L 150.40 581.90 L 143.80 583.30 L 136.70 584.20 L 129.00 584.50 L 121.40 584.20 L 114.30 583.30 L 107.70 581.90 L 101.50 579.90 L 95.40 577.30 L 89.70 574.30 L 84.30 570.80 L 79.30 566.90 L 74.70 562.50 L 70.30 557.70 L 66.20 552.60 L 62.40 547.00 L 59.10 541.10 L 56.00 535.00 L 53.20 528.50 L 50.60 521.60 L 47.80 512.40 L 45.50 502.60 L 43.70 492.40 L 42.40 482.10 L 41.70 471.50 L 41.40 460.70 L 41.70 449.80 L 42.60 439.00 L 44.10 428.30 L 46.10 417.70 L 48.60 407.40 L 51.50 397.30 L 54.90 387.40 L 58.70 378.00 L 62.80 369.00 L 67.30 360.20 L 72.10 352.10 L 77.10 344.60 L 82.50 337.50 L 87.90 331.20 L 93.40 325.60 L 97.90 321.80 L 102.30 318.40 L 106.70 315.60 L 111.10 313.30 L 115.70 311.30 L 120.20 310.00 L 124.60 309.10 L 129.00 308.90 L 133.50 309.10 L 137.90 310.00 L 142.40 311.30 L 147.00 313.30 L 151.40 315.60 L 155.80 318.40 L 160.20 321.80 L 164.70 325.60 L 170.20 331.20 L 175.60 337.50 L 181.00 344.60 L 186.00 352.10 L 190.80 360.20 L 195.30 369.00 L 199.40 378.00 L 203.20 387.40 L 206.60 397.30 L 209.50 407.40 L 212.00 417.70 L 214.00 428.30 L 215.50 439.00 L 216.40 449.80 L 216.70 460.70" fill="#e8f6ff" fill-rule="evenodd" group-id="1,2" id="Fill-96" node-id="60" stroke="none" target-height="275.6" target-width="175.29999" target-x="41.4" target-y="308.9"/><path d="M 129.00 446.70 L 129.00 631.50" fill="none" group-id="1,2" id="Stroke-98" node-id="61" stroke="#d6eeff" stroke-linecap="square" stroke-width="10.5" target-height="184.79999" target-width="0" target-x="129" target-y="446.7"/><path d="M 154.50 469.20 L 178.20 442.60" fill="none" group-id="1,2" id="Stroke-100" node-id="62" stroke="#d6eeff" stroke-linecap="square" stroke-width="7" target-height="26.600006" target-width="23.699997" target-x="154.5" target-y="442.6"/><path d="M 103.60 524.00 L 79.80 497.30" fill="none" group-id="1,2" id="Stroke-102" node-id="63" stroke="#d6eeff" stroke-linecap="square" stroke-width="7" target-height="26.700012" target-width="23.799995" target-x="79.8" target-y="497.3"/><path d="M 103.60 470.30 L 79.80 443.70" fill="none" group-id="1,2" id="Stroke-104" node-id="64" stroke="#d6eeff" stroke-linecap="square" stroke-width="7" target-height="26.599976" target-width="23.799995" target-x="79.8" target-y="443.7"/><g node-id="79"><path d="M 1232.60 631.50 L 7.00 631.50" fill="#e8f6ff" fill-rule="evenodd" group-id="1,2,4" id="Fill-106" node-id="66" stroke="none" target-height="0" target-width="1225.6" target-x="7" target-y="631.5"/><path d="M 1232.60 631.50 L 7.00 631.50" fill="none" group-id="1,2,4" id="Stroke-108" node-id="67" stroke="#d6eeff" stroke-linecap="round" stroke-width="14" target-height="0" target-width="1225.6" target-x="7" target-y="631.5"/></g></g></g></svg>